<?xml version="1.0" encoding="utf-8"?>
<!-- Generator: Adobe Illustrator 23.0.2, SVG Export Plug-In . SVG Version: 6.00 Build 0)  -->
<svg version="1.1" id="Layer_1" xmlns="http://www.w3.org/2000/svg" xmlns:xlink="http://www.w3.org/1999/xlink" x="0px" y="0px"
	 viewBox="0 0 2000 320" style="enable-background:new 0 0 2000 320;" xml:space="preserve">
<style type="text/css">
	.st0{fill:#C3E6EA;}
	.st1{fill:#495057;stroke:#C3E6EA;stroke-width:0.5;stroke-miterlimit:10;}
	.st2{fill:#C3E6EA;stroke:#495057;stroke-width:0.5;stroke-miterlimit:10;}
	.st3{fill:#495057;}
	.st4{fill:none;stroke:#C3E6EA;stroke-width:0.5;stroke-miterlimit:10;}
</style>
<g>
	<g>
		<path class="st0" d="M192.8,150.5c-0.6,1.8-3.6,2.4-4.6,2.5c-5.7,1.1-18.2,4.9-36.7,11.1c-4.7-8.9-9.4-17.7-14.1-26.6
			c8.1-4.5,16.2-9,24.2-13.5c4.6,3.2,21.8,15.2,28.5,21.5C191.4,146.7,193.4,148.7,192.8,150.5z"/>
		
			<ellipse transform="matrix(0.5616 -0.8274 0.8274 0.5616 -146.9558 165.1217)" class="st1" cx="82.3" cy="221.2" rx="37" ry="7.9"/>
		<path class="st1" d="M108,265.2c7.8,9.4,10.6,17.4,11.5,23.3c0.9,5.8,0.1,9,3.4,11.3c7.8,5.6,30-0.1,30.2-4.5
			c0.1-2.7-8-6.3-15.3-6c-3.3,0.1-3.6,1-5.2,0.7c-8.5-1.5-3.6-25.2-13.4-28C117.4,261.5,114.1,261.5,108,265.2z"/>
		<ellipse class="st1" cx="110.1" cy="232" rx="34.1" ry="55"/>
		<path class="st1" d="M86.7,258.4c-5.5-0.9-4.4,11-13.8,20.6c-4.7,4.8-7.4,4.3-7.8,8.1c-0.6,6.8,10.9,26.8,18.1,24.6
			c3.8-1.1,6.4-8.4,4.4-12.3c-1.7-3.4-6.8-4.1-7.7-8.7c-0.1-0.8-0.1-1.4-0.1-1.8c0.5-8.5,15.1-14.2,14.7-21.9
			C94.4,263.1,90.3,259,86.7,258.4z"/>
		
			<rect x="119.1" y="188.4" transform="matrix(0.9619 -0.2733 0.2733 0.9619 -49.9412 40.792)" class="st2" width="4.7" height="22.4"/>
		<circle class="st1" cx="110.1" cy="135.2" r="55"/>
		<path class="st2" d="M144.8,43.2h-1.2c1.6,17.3,3.2,34.6,4.9,51.9c-11.4,5.2-23.8,7.8-36.3,7.9c-12.7,0-25.2-2.7-36.7-8
			c1.7-17.6,3.3-35.2,5-52.8c-6.5,2.8-14-0.3-16.7-6.9C61,28.7,64,21.1,70.5,18.3c5.7-2.4,12.2-0.4,15.6,4.8
			c3.9-6,11.8-7.6,17.6-3.7c3.6,2.4,5.7,6.4,5.7,10.8c0.1-7.1,6-12.8,13-12.7c4.7,0.1,8.9,2.7,11.1,6.9c3.3-6.3,11-8.7,17.2-5.4
			s8.6,11.1,5.3,17.4c-2.2,4.2-6.5,6.9-11.2,6.9V43.2z"/>
		<path class="st2" d="M121.1,207.3c1.1,0,3,0.2,5.1,0.9c4.1,1.3,5.4,3.1,8.3,3.5c1.5,0.2,3.7,0.1,6.7-1.7
			c2.1,5.7,5.2,16.6,4.6,30.5c-0.6,13.8-4.7,24.1-7.2,29.5c-1,0.8-3.5,2.7-7.1,2.8c-4.4,0.2-7.5-2.3-8.3-3
			C122.5,248.9,121.8,228.1,121.1,207.3z"/>
		<rect x="76" y="230.2" class="st2" width="69.8" height="7.4"/>
		
			<ellipse transform="matrix(0.8082 -0.5888 0.5888 0.8082 -111.1125 113.7683)" class="st1" cx="119.1" cy="227.5" rx="7.9" ry="37"/>
	</g>
	<path class="st0" d="M134.2,122.9c0.4-1.6,1.2-3,2.4-4.2c1.6-1.5,3.9-2.3,6.1-2c1.8,0.4,3.4,1.6,4.4,3.1c1.1,1.7,1.7,3.6,1.8,5.6
		c0.6,2.3,0.6,4.6,0,6.9c-0.5,1.6-1.4,2.9-2.7,3.9c-1.8,1.2-4,1.6-6.1,1.1c-1.7-0.1-3.3-0.8-4.5-2c-1-1.4-1.7-3.1-1.8-4.9
		c-0.2-1.3-0.3-2.6-0.3-4C133.6,125.4,133.9,124.1,134.2,122.9z"/>
	<ellipse class="st3" cx="141.4" cy="129.9" rx="6.5" ry="6.6"/>
	<path class="st4" d="M152.7,151.3c-2.6-2.4-5.1-4.2-5.8-3.7c-0.8,0.5,0.7,3.5,0,3.9s-5.3-5.5-7.3-4.6c-0.8,0.3-1,1.5-1.1,2.5"/>
</g>
<g>
	<g>
		<path class="st0" d="M442.4,151c-0.6,1.8-3.6,2.3-4.6,2.5c-5.7,1.1-18.2,4.9-36.5,11c-4.7-8.8-9.4-17.7-14.1-26.5
			c8-4.5,16.1-8.9,24.1-13.4c4.5,3.1,21.7,15.1,28.4,21.4C440.9,147.2,442.9,149.3,442.4,151z"/>
		
			<ellipse transform="matrix(0.5616 -0.8274 0.8274 0.5616 2.2508 420.8257)" class="st1" cx="398.2" cy="208.3" rx="7.9" ry="36.8"/>
		<path class="st1" d="M336.8,254.2c-1.1,12.1-4.8,19.7-8.3,24.5c-3.4,4.8-6.3,6.4-5.6,10.4c1.6,9.4,21.2,21,24.4,18.1
			c2-1.8-1.2-10.1-6.5-14.9c-2.4-2.2-3.2-1.8-4.1-3.2c-4.9-7.1,15.2-20.3,10.3-29.2C345.9,258.2,343.6,255.9,336.8,254.2z"/>
		<ellipse class="st1" cx="360" cy="232.2" rx="33.9" ry="54.8"/>
		<path class="st1" d="M344.1,269.2c-3,4.6,8.2,8.5,13,21c2.4,6.3,0.8,8.5,4.1,10.4c5.9,3.4,28.7,1.2,29.7-6.3
			c0.5-3.9-4.9-9.3-9.3-9.1c-3.8,0.2-6.6,4.5-11.1,3.3c-0.8-0.2-1.3-0.5-1.7-0.7c-7.4-4-6.7-19.6-13.8-22.3
			C351.5,264.1,346.1,266.1,344.1,269.2z"/>
		
			<rect x="368.9" y="188.8" transform="matrix(0.9619 -0.2733 0.2733 0.9619 -40.5145 109.0985)" class="st2" width="4.7" height="22.3"/>
		<circle class="st1" cx="360" cy="135.8" r="54.8"/>
		<path class="st2" d="M394.5,44.2h-1.2c1.6,17.2,3.2,34.4,4.8,51.6c-11.4,5.1-23.7,7.8-36.1,7.8c-12.6,0-25.1-2.7-36.5-7.9
			c1.7-17.5,3.3-35,4.9-52.5c-6.5,2.8-13.9-0.3-16.6-6.9c-2.7-6.6,0.3-14.1,6.8-16.9c5.6-2.4,12.2-0.4,15.5,4.8
			c3.8-5.9,11.7-7.6,17.5-3.7c3.6,2.4,5.7,6.4,5.7,10.7c0.1-7.1,5.9-12.8,12.9-12.6c4.6,0.1,8.8,2.7,11,6.9
			c3.3-6.3,10.9-8.7,17.1-5.4s8.6,11.1,5.3,17.4c-2.2,4.2-6.5,6.8-11.2,6.8V44.2z"/>
		<path class="st2" d="M371,207.5c1.1,0,2.9,0.2,5.1,0.9c4,1.3,5.3,3.1,8.3,3.5c1.4,0.2,3.7,0.1,6.6-1.7c2,5.7,5.2,16.5,4.5,30.4
			c-0.6,13.7-4.6,24-7.2,29.4c-0.9,0.8-3.4,2.7-7,2.8c-4.4,0.2-7.4-2.3-8.3-3C372.4,249,371.7,228.3,371,207.5z"/>
		<rect x="326.1" y="230.4" class="st2" width="69.5" height="7.4"/>
		
			<ellipse transform="matrix(0.6661 -0.7459 0.7459 0.6661 -56.9781 322.8281)" class="st1" cx="332.1" cy="225.1" rx="36.8" ry="7.9"/>
	</g>
	<path class="st0" d="M384,123.6c0.4-1.6,1.2-3,2.4-4.2c1.6-1.5,3.8-2.2,6-1.9c1.8,0.4,3.4,1.5,4.4,3.1c1.1,1.7,1.7,3.6,1.8,5.6
		c0.6,2.3,0.6,4.6,0,6.9c-0.5,1.5-1.4,2.9-2.6,3.9c-1.8,1.2-4,1.6-6.1,1.1c-1.7-0.1-3.3-0.8-4.5-1.9c-1-1.4-1.7-3.1-1.8-4.9
		c-0.2-1.3-0.3-2.6-0.3-3.9C383.4,126,383.6,124.8,384,123.6z"/>
	<ellipse class="st3" cx="391.2" cy="130.5" rx="6.4" ry="6.5"/>
	<path class="st4" d="M402.4,151.8c-2.6-2.4-5.1-4.2-5.8-3.7c-0.8,0.5,0.7,3.4,0,3.9c-0.7,0.4-5.2-5.5-7.3-4.6
		c-0.8,0.3-1,1.5-1.1,2.4"/>
</g>
<g>
	<g>
		<path class="st0" d="M693.1,151c-0.6,1.8-3.6,2.4-4.6,2.5c-5.7,1.1-18.2,4.9-36.7,11.1c-4.7-8.9-9.4-17.7-14.1-26.6
			c8.1-4.5,16.2-9,24.2-13.5c4.6,3.2,21.8,15.2,28.5,21.5C691.6,147.2,693.6,149.2,693.1,151z"/>
		
			<ellipse transform="matrix(0.6427 -0.7661 0.7661 0.6427 55.3746 559.5407)" class="st1" cx="627.6" cy="220.4" rx="7.9" ry="37"/>
		<path class="st1" d="M600.3,254.6c-1.1,12.2-4.8,19.8-8.3,24.6c-3.5,4.8-6.3,6.4-5.6,10.4c1.6,9.5,21.3,21.1,24.5,18.2
			c2-1.8-1.2-10.1-6.6-15c-2.4-2.2-3.2-1.8-4.2-3.2c-4.9-7.1,15.3-20.4,10.3-29.3C609.5,258.7,607.2,256.3,600.3,254.6z"/>
		<ellipse class="st1" cx="610.4" cy="232.5" rx="34.1" ry="55"/>
		<path class="st1" d="M591.1,271c-2.6,4.9,8.9,7.8,14.8,19.9c3,6.1,1.5,8.4,5,10c6.2,2.9,28.9-1.3,29.2-8.8
			c0.2-3.9-5.7-8.8-10.1-8.3c-3.8,0.5-6.2,5-10.8,4.3c-0.8-0.1-1.4-0.4-1.7-0.5c-7.8-3.3-8.3-19-15.6-21.2
			C598,265.3,592.8,267.8,591.1,271z"/>
		
			<rect x="619.3" y="188.9" transform="matrix(0.9619 -0.2733 0.2733 0.9619 -31.0215 177.5577)" class="st2" width="4.7" height="22.4"/>
		<circle class="st1" cx="610.4" cy="135.7" r="55"/>
		<path class="st2" d="M645,43.7h-1.2c1.6,17.3,3.2,34.6,4.9,51.9c-11.4,5.2-23.8,7.8-36.3,7.9c-12.7,0-25.2-2.7-36.7-8
			c1.7-17.6,3.3-35.2,5-52.8c-6.5,2.8-14-0.3-16.7-6.9s0.3-14.2,6.8-16.9c5.7-2.4,12.2-0.4,15.6,4.8c3.9-6,11.8-7.6,17.6-3.7
			c3.6,2.4,5.7,6.4,5.7,10.8c0.1-7.1,6-12.8,13-12.7c4.7,0.1,8.9,2.7,11.1,6.9c3.3-6.3,11-8.7,17.2-5.4s8.6,11.1,5.3,17.4
			c-2.2,4.2-6.5,6.9-11.2,6.9V43.7z"/>
		<path class="st2" d="M621.4,207.7c1.1,0,3,0.2,5.1,0.9c4.1,1.3,5.4,3.1,8.3,3.5c1.5,0.2,3.7,0.1,6.7-1.7
			c2.1,5.7,5.2,16.6,4.6,30.5c-0.6,13.8-4.7,24.1-7.2,29.5c-1,0.8-3.5,2.7-7.1,2.8c-4.4,0.2-7.5-2.3-8.3-3
			C622.8,249.4,622.1,228.6,621.4,207.7z"/>
		<rect x="576.3" y="230.7" class="st2" width="69.8" height="7.4"/>
		
			<ellipse transform="matrix(0.1551 -0.9879 0.9879 0.1551 269.9268 790.0992)" class="st1" cx="596.9" cy="237.2" rx="37" ry="7.9"/>
	</g>
	<path class="st0" d="M634.5,123.4c0.4-1.6,1.2-3,2.4-4.2c1.6-1.5,3.9-2.3,6.1-2c1.8,0.4,3.4,1.6,4.4,3.1c1.1,1.7,1.7,3.6,1.8,5.6
		c0.6,2.3,0.6,4.6,0,6.9c-0.5,1.6-1.4,2.9-2.7,3.9c-1.8,1.2-4,1.6-6.1,1.1c-1.7-0.1-3.3-0.8-4.5-2c-1-1.4-1.7-3.1-1.8-4.9
		c-0.2-1.3-0.3-2.6-0.3-4C633.9,125.9,634.1,124.6,634.5,123.4z"/>
	<ellipse class="st3" cx="641.7" cy="130.4" rx="6.5" ry="6.6"/>
	<path class="st4" d="M653,151.8c-2.6-2.4-5.1-4.2-5.8-3.7c-0.8,0.5,0.7,3.5,0,3.9c-0.7,0.4-5.3-5.5-7.3-4.6c-0.8,0.3-1,1.5-1.1,2.5
		"/>
</g>
<g>
	<g>
		<path class="st0" d="M943.2,150.5c-0.6,1.8-3.6,2.4-4.6,2.5c-5.7,1.1-18.2,4.9-36.7,11.1c-4.7-8.9-9.4-17.7-14.1-26.6
			c8.1-4.5,16.2-9,24.2-13.5c4.6,3.2,21.8,15.2,28.5,21.5C941.8,146.7,943.8,148.7,943.2,150.5z"/>
		
			<ellipse transform="matrix(0.5616 -0.8274 0.8274 0.5616 182.0248 786.0138)" class="st1" cx="832.7" cy="221.2" rx="37" ry="7.9"/>
		<path class="st1" d="M858.4,265.2c7.8,9.4,10.6,17.4,11.5,23.3c0.9,5.8,0.1,9,3.4,11.3c7.8,5.6,30-0.1,30.2-4.5
			c0.1-2.7-8-6.3-15.3-6c-3.3,0.1-3.6,1-5.2,0.7c-8.5-1.5-3.6-25.2-13.4-28C867.8,261.5,864.5,261.5,858.4,265.2z"/>
		<ellipse class="st1" cx="860.5" cy="232" rx="34.1" ry="55"/>
		<path class="st1" d="M837.1,258.4c-5.5-0.9-4.4,11-13.8,20.6c-4.7,4.8-7.4,4.3-7.8,8.1c-0.6,6.8,10.9,26.8,18.1,24.6
			c3.8-1.1,6.4-8.4,4.4-12.3c-1.7-3.4-6.8-4.1-7.7-8.7c-0.1-0.8-0.1-1.4-0.1-1.8c0.5-8.5,15.1-14.2,14.7-21.9
			C844.8,263.1,840.7,259,837.1,258.4z"/>
		
			<rect x="869.5" y="188.4" transform="matrix(0.9619 -0.2733 0.2733 0.9619 -21.3624 245.9127)" class="st2" width="4.7" height="22.4"/>
		<circle class="st1" cx="860.5" cy="135.2" r="55"/>
		<path class="st2" d="M895.2,43.2H894c1.6,17.3,3.2,34.6,4.9,51.9c-11.4,5.2-23.8,7.8-36.3,7.9c-12.7,0-25.2-2.7-36.7-8
			c1.7-17.6,3.3-35.2,5-52.8c-6.5,2.8-14-0.3-16.7-6.9c-2.7-6.6,0.3-14.2,6.8-16.9c5.7-2.4,12.2-0.4,15.6,4.8
			c3.9-6,11.8-7.6,17.6-3.7c3.6,2.4,5.7,6.4,5.7,10.8c0.1-7.1,6-12.8,13-12.7c4.7,0.1,8.9,2.7,11.1,6.9c3.3-6.3,11-8.7,17.2-5.4
			c6.2,3.3,8.6,11.1,5.3,17.4c-2.2,4.2-6.5,6.9-11.2,6.9V43.2z"/>
		<path class="st2" d="M871.5,207.3c1.1,0,3,0.2,5.1,0.9c4.1,1.3,5.4,3.1,8.3,3.5c1.5,0.2,3.7,0.1,6.7-1.7
			c2.1,5.7,5.2,16.6,4.6,30.5c-0.6,13.8-4.7,24.1-7.2,29.5c-1,0.8-3.5,2.7-7.1,2.8c-4.4,0.2-7.5-2.3-8.3-3
			C872.9,248.9,872.2,228.1,871.5,207.3z"/>
		<rect x="826.4" y="230.2" class="st2" width="69.8" height="7.4"/>
		
			<ellipse transform="matrix(0.8082 -0.5888 0.5888 0.8082 32.7813 555.6407)" class="st1" cx="869.5" cy="227.5" rx="7.9" ry="37"/>
	</g>
	<path class="st0" d="M884.6,122.9c0.4-1.6,1.2-3,2.4-4.2c1.6-1.5,3.9-2.3,6.1-2c1.8,0.4,3.4,1.6,4.4,3.1c1.1,1.7,1.7,3.6,1.8,5.6
		c0.6,2.3,0.6,4.6,0,6.9c-0.5,1.6-1.4,2.9-2.7,3.9c-1.8,1.2-4,1.6-6.1,1.1c-1.7-0.1-3.3-0.8-4.5-2c-1-1.4-1.7-3.1-1.8-4.9
		c-0.2-1.3-0.3-2.6-0.3-4C884,125.4,884.3,124.1,884.6,122.9z"/>
	<ellipse class="st3" cx="891.8" cy="129.9" rx="6.5" ry="6.6"/>
	<path class="st4" d="M903.1,151.3c-2.6-2.4-5.1-4.2-5.8-3.7s0.7,3.5,0,3.9s-5.3-5.5-7.3-4.6c-0.8,0.3-1,1.5-1.1,2.5"/>
</g>
<g>
	<g>
		<path class="st0" d="M1192.8,151.1c-0.5,1.8-3.6,2.3-4.6,2.5c-5.6,1.1-18.1,4.9-36.3,11c-4.7-8.8-9.3-17.6-14-26.3
			c8-4.4,16-8.9,24-13.3c4.5,3.1,21.6,15,28.2,21.3C1191.3,147.3,1193.3,149.4,1192.8,151.1z"/>
		
			<ellipse transform="matrix(0.5616 -0.8274 0.8274 0.5616 331.5879 1041.8232)" class="st1" cx="1148.9" cy="208" rx="7.8" ry="36.6"/>
		<path class="st1" d="M1087.9,253.6c-1.1,12-4.8,19.6-8.2,24.3c-3.4,4.7-6.3,6.3-5.6,10.3c1.6,9.4,21.1,20.9,24.3,18
			c2-1.8-1.2-10-6.5-14.9c-2.4-2.2-3.2-1.8-4.1-3.1c-4.9-7,15.1-20.2,10.2-29C1096.9,257.6,1094.6,255.3,1087.9,253.6z"/>
		<ellipse class="st1" cx="1110.9" cy="231.7" rx="33.7" ry="54.4"/>
		<path class="st1" d="M1095.1,268.5c-3,4.6,8.1,8.4,12.9,20.8c2.4,6.2,0.8,8.4,4.1,10.3c5.9,3.3,28.6,1.2,29.5-6.2
			c0.5-3.8-4.9-9.2-9.3-9c-3.8,0.2-6.5,4.4-11,3.3c-0.8-0.2-1.3-0.5-1.7-0.7c-7.4-3.9-6.6-19.5-13.7-22.2
			C1102.4,263.5,1097.1,265.5,1095.1,268.5z"/>
		
			<rect x="1119.8" y="188.6" transform="matrix(0.9619 -0.2733 0.2733 0.9619 -11.8554 314.3324)" class="st2" width="4.7" height="22.1"/>
		<circle class="st1" cx="1110.9" cy="135.9" r="54.4"/>
		<path class="st2" d="M1145.2,45h-1.2c1.6,17.1,3.2,34.2,4.8,51.3c-11.3,5.1-23.5,7.8-35.9,7.8c-12.5,0-24.9-2.7-36.3-7.9
			c1.7-17.4,3.3-34.8,4.9-52.2c-6.4,2.7-13.8-0.3-16.5-6.8c-2.7-6.5,0.3-14,6.7-16.8c5.6-2.4,12.1-0.4,15.5,4.8
			c3.8-5.9,11.6-7.5,17.4-3.6c3.5,2.4,5.7,6.4,5.7,10.7c0.1-7.1,5.9-12.7,12.9-12.6c4.6,0.1,8.8,2.7,10.9,6.8
			c3.2-6.2,10.9-8.6,17-5.3s8.5,11,5.3,17.2c-2.2,4.2-6.5,6.8-11.1,6.8V45z"/>
		<path class="st2" d="M1121.8,207.3c1.1,0,2.9,0.2,5.1,0.9c4,1.3,5.3,3.1,8.2,3.5c1.4,0.2,3.7,0.1,6.6-1.7c2,5.6,5.1,16.4,4.5,30.2
			c-0.6,13.6-4.6,23.8-7.1,29.2c-0.9,0.8-3.4,2.6-7,2.8c-4.3,0.2-7.4-2.2-8.2-3C1123.2,248.5,1122.5,227.9,1121.8,207.3z"/>
		<rect x="1077.2" y="230" class="st2" width="69.1" height="7.3"/>
		
			<ellipse transform="matrix(0.6661 -0.7459 0.7459 0.6661 194.095 882.9047)" class="st1" cx="1083.2" cy="224.7" rx="36.6" ry="7.8"/>
	</g>
	<path class="st0" d="M1134.8,123.8c0.4-1.6,1.2-3,2.3-4.2c1.6-1.5,3.8-2.2,6-1.9c1.8,0.4,3.4,1.5,4.4,3.1c1.1,1.7,1.7,3.6,1.8,5.6
		c0.6,2.2,0.6,4.6,0,6.8c-0.5,1.5-1.4,2.9-2.6,3.9c-1.8,1.2-4,1.6-6.1,1.1c-1.7-0.1-3.3-0.8-4.5-1.9c-1-1.4-1.6-3.1-1.8-4.8
		c-0.2-1.3-0.3-2.6-0.3-3.9C1134.2,126.2,1134.4,125,1134.8,123.8z"/>
	<ellipse class="st3" cx="1141.9" cy="130.7" rx="6.4" ry="6.5"/>
	<path class="st4" d="M1153.1,151.9c-2.6-2.3-5-4.2-5.8-3.6c-0.8,0.5,0.7,3.4,0,3.8c-0.7,0.4-5.2-5.4-7.2-4.6
		c-0.8,0.3-1,1.5-1.1,2.4"/>
</g>
<g>
	<g>
		<path class="st0" d="M1443.5,151c-0.6,1.8-3.6,2.4-4.6,2.5c-5.7,1.1-18.2,4.9-36.7,11.1c-4.7-8.9-9.4-17.7-14.1-26.6
			c8.1-4.5,16.2-9,24.2-13.5c4.6,3.2,21.8,15.2,28.5,21.5C1442,147.2,1444,149.2,1443.5,151z"/>
		
			<ellipse transform="matrix(0.6427 -0.7661 0.7661 0.6427 323.4639 1134.4111)" class="st1" cx="1378" cy="220.4" rx="7.9" ry="37"/>
		<path class="st1" d="M1350.7,254.6c-1.1,12.2-4.8,19.8-8.3,24.6c-3.5,4.8-6.3,6.4-5.6,10.4c1.6,9.5,21.3,21.1,24.5,18.2
			c2-1.8-1.2-10.1-6.6-15c-2.4-2.2-3.2-1.8-4.2-3.2c-4.9-7.1,15.3-20.4,10.3-29.3C1359.9,258.7,1357.6,256.3,1350.7,254.6z"/>
		<ellipse class="st1" cx="1360.8" cy="232.5" rx="34.1" ry="55"/>
		<path class="st1" d="M1341.5,271c-2.6,4.9,8.9,7.8,14.8,19.9c3,6.1,1.5,8.4,5,10c6.2,2.9,28.9-1.3,29.2-8.8
			c0.2-3.9-5.7-8.8-10.1-8.3c-3.8,0.5-6.2,5-10.8,4.3c-0.8-0.1-1.4-0.4-1.7-0.5c-7.8-3.3-8.3-19-15.6-21.2
			C1348.4,265.3,1343.2,267.8,1341.5,271z"/>
		
			<rect x="1369.7" y="188.9" transform="matrix(0.9619 -0.2733 0.2733 0.9619 -2.4424 382.6784)" class="st2" width="4.7" height="22.4"/>
		<circle class="st1" cx="1360.8" cy="135.7" r="55"/>
		<path class="st2" d="M1395.4,43.7h-1.2c1.6,17.3,3.2,34.6,4.9,51.9c-11.4,5.2-23.8,7.8-36.2,7.9c-12.7,0-25.2-2.7-36.7-8
			c1.7-17.6,3.3-35.2,5-52.8c-6.5,2.8-14-0.3-16.7-6.9s0.3-14.2,6.8-16.9c5.7-2.4,12.2-0.4,15.6,4.8c3.9-6,11.8-7.6,17.6-3.7
			c3.6,2.4,5.7,6.4,5.7,10.8c0.1-7.1,6-12.8,13-12.7c4.7,0.1,8.9,2.7,11.1,6.9c3.3-6.3,11-8.7,17.2-5.4s8.6,11.1,5.3,17.4
			c-2.2,4.2-6.5,6.9-11.2,6.9V43.7z"/>
		<path class="st2" d="M1371.8,207.7c1.1,0,3,0.2,5.1,0.9c4.1,1.3,5.4,3.1,8.3,3.5c1.5,0.2,3.7,0.1,6.7-1.7
			c2.1,5.7,5.2,16.6,4.6,30.5c-0.6,13.8-4.7,24.1-7.2,29.5c-1,0.8-3.5,2.7-7.1,2.8c-4.4,0.2-7.5-2.3-8.3-3
			C1373.2,249.4,1372.5,228.6,1371.8,207.7z"/>
		<rect x="1326.7" y="230.7" class="st2" width="69.8" height="7.4"/>
		
			<ellipse transform="matrix(0.1551 -0.9879 0.9879 0.1551 903.9155 1531.4147)" class="st1" cx="1347.3" cy="237.2" rx="37" ry="7.9"/>
	</g>
	<path class="st0" d="M1384.9,123.4c0.4-1.6,1.2-3,2.4-4.2c1.6-1.5,3.9-2.3,6.1-2c1.8,0.4,3.4,1.6,4.4,3.1c1.1,1.7,1.7,3.6,1.8,5.6
		c0.6,2.3,0.6,4.6,0,6.9c-0.5,1.6-1.4,2.9-2.7,3.9c-1.8,1.2-4,1.6-6.1,1.1c-1.7-0.1-3.3-0.8-4.5-2c-1-1.4-1.7-3.1-1.8-4.9
		c-0.2-1.3-0.3-2.6-0.3-4C1384.3,125.9,1384.5,124.6,1384.9,123.4z"/>
	<ellipse class="st3" cx="1392.1" cy="130.4" rx="6.5" ry="6.6"/>
	<path class="st4" d="M1403.4,151.8c-2.6-2.4-5.1-4.2-5.8-3.7c-0.8,0.5,0.7,3.5,0,3.9c-0.7,0.4-5.3-5.5-7.3-4.6
		c-0.8,0.3-1,1.5-1.1,2.5"/>
</g>
<g>
	<g>
		<path class="st0" d="M1686.9,150.5c-0.6,1.8-3.6,2.4-4.6,2.5c-5.7,1.1-18.2,4.9-36.7,11.1c-4.7-8.9-9.4-17.7-14.1-26.6
			c8.1-4.5,16.2-9,24.2-13.5c4.6,3.2,21.8,15.2,28.5,21.5C1685.4,146.7,1687.4,148.7,1686.9,150.5z"/>
		
			<ellipse transform="matrix(0.5616 -0.8274 0.8274 0.5616 508.0415 1401.3069)" class="st1" cx="1576.4" cy="221.2" rx="37" ry="7.9"/>
		<path class="st1" d="M1602.1,265.2c7.8,9.4,10.6,17.4,11.5,23.3c0.9,5.8,0.1,9,3.4,11.3c7.8,5.6,30-0.1,30.2-4.5
			c0.1-2.7-8-6.3-15.3-6c-3.3,0.1-3.6,1-5.2,0.7c-8.5-1.5-3.6-25.2-13.4-28C1611.4,261.5,1608.1,261.5,1602.1,265.2z"/>
		<ellipse class="st1" cx="1604.1" cy="232" rx="34.1" ry="55"/>
		<path class="st1" d="M1580.7,258.4c-5.5-0.9-4.4,11-13.8,20.6c-4.7,4.8-7.4,4.3-7.8,8.1c-0.6,6.8,10.9,26.8,18.1,24.6
			c3.8-1.1,6.4-8.4,4.4-12.3c-1.7-3.4-6.8-4.1-7.7-8.7c-0.1-0.8-0.1-1.4-0.1-1.8c0.5-8.5,15.1-14.2,14.7-21.9
			C1588.4,263.1,1584.3,259,1580.7,258.4z"/>
		
			<rect x="1613.1" y="188.4" transform="matrix(0.9619 -0.2733 0.2733 0.9619 6.9591 449.1836)" class="st2" width="4.7" height="22.4"/>
		<circle class="st1" cx="1604.1" cy="135.2" r="55"/>
		<path class="st2" d="M1638.8,43.2h-1.2c1.6,17.3,3.2,34.6,4.9,51.9c-11.4,5.2-23.8,7.8-36.2,7.9c-12.7,0-25.2-2.7-36.7-8
			c1.7-17.6,3.3-35.2,5-52.8c-6.5,2.8-14-0.3-16.7-6.9s0.3-14.2,6.8-16.9c5.7-2.4,12.2-0.4,15.6,4.8c3.9-6,11.8-7.6,17.6-3.7
			c3.6,2.4,5.7,6.4,5.7,10.8c0.1-7.1,6-12.8,13-12.7c4.7,0.1,8.9,2.7,11.1,6.9c3.3-6.3,11-8.7,17.2-5.4c6.2,3.3,8.6,11.1,5.3,17.4
			c-2.2,4.2-6.5,6.9-11.2,6.9V43.2z"/>
		<path class="st2" d="M1615.2,207.3c1.1,0,3,0.2,5.1,0.9c4.1,1.3,5.4,3.1,8.3,3.5c1.5,0.2,3.7,0.1,6.7-1.7
			c2.1,5.7,5.2,16.6,4.6,30.5c-0.6,13.8-4.7,24.1-7.2,29.5c-1,0.8-3.5,2.7-7.1,2.8c-4.4,0.2-7.5-2.3-8.3-3
			C1616.6,248.9,1615.9,228.1,1615.2,207.3z"/>
		<rect x="1570.1" y="230.2" class="st2" width="69.8" height="7.4"/>
		
			<ellipse transform="matrix(0.8082 -0.5888 0.5888 0.8082 175.3791 993.5277)" class="st1" cx="1613.2" cy="227.5" rx="7.9" ry="37"/>
	</g>
	<path class="st0" d="M1628.3,122.9c0.4-1.6,1.2-3,2.4-4.2c1.6-1.5,3.9-2.3,6.1-2c1.8,0.4,3.4,1.6,4.4,3.1c1.1,1.7,1.7,3.6,1.8,5.6
		c0.6,2.3,0.6,4.6,0,6.9c-0.5,1.6-1.4,2.9-2.7,3.9c-1.8,1.2-4,1.6-6.1,1.1c-1.7-0.1-3.3-0.8-4.5-2c-1-1.4-1.7-3.1-1.8-4.9
		c-0.2-1.3-0.3-2.6-0.3-4C1627.6,125.4,1627.9,124.1,1628.3,122.9z"/>
	<ellipse class="st3" cx="1635.5" cy="129.9" rx="6.5" ry="6.6"/>
	<path class="st4" d="M1646.8,151.3c-2.6-2.4-5.1-4.2-5.8-3.7c-0.8,0.5,0.7,3.5,0,3.9c-0.7,0.4-5.3-5.5-7.3-4.6
		c-0.8,0.3-1,1.5-1.1,2.5"/>
</g>
<g>
	<g>
		<path class="st0" d="M1953.8,151c-0.6,1.8-3.6,2.4-4.6,2.5c-5.7,1.1-18.2,4.9-36.7,11.1c-4.7-8.9-9.4-17.7-14.1-26.6
			c8.1-4.5,16.2-9,24.2-13.5c4.6,3.2,21.8,15.2,28.5,21.5C1952.3,147.2,1954.3,149.2,1953.8,151z"/>
		
			<ellipse transform="matrix(0.5616 -0.8274 0.8274 0.5616 664.6127 1671.3088)" class="st1" cx="1909.5" cy="208.5" rx="7.9" ry="37"/>
		<path class="st1" d="M1847.7,254.6c-1.1,12.2-4.8,19.8-8.3,24.6c-3.5,4.8-6.3,6.4-5.6,10.4c1.6,9.5,21.3,21.1,24.5,18.2
			c2-1.8-1.2-10.1-6.6-15c-2.4-2.2-3.2-1.8-4.2-3.2c-4.9-7.1,15.3-20.4,10.3-29.3C1856.9,258.7,1854.6,256.3,1847.7,254.6z"/>
		<ellipse class="st1" cx="1871" cy="232.5" rx="34.1" ry="55"/>
		<path class="st1" d="M1855.1,269.7c-3,4.6,8.2,8.5,13,21c2.4,6.3,0.8,8.5,4.1,10.4c5.9,3.4,28.9,1.2,29.8-6.3
			c0.5-3.9-5-9.3-9.4-9.1c-3.8,0.2-6.6,4.5-11.1,3.4c-0.8-0.2-1.3-0.5-1.7-0.7c-7.5-4-6.7-19.7-13.8-22.4
			C1862.5,264.6,1857.1,266.6,1855.1,269.7z"/>
		
			<rect x="1880" y="188.9" transform="matrix(0.9619 -0.2733 0.2733 0.9619 16.9912 522.159)" class="st2" width="4.7" height="22.4"/>
		<circle class="st1" cx="1871" cy="135.7" r="55"/>
		<path class="st2" d="M1905.7,43.7h-1.2c1.6,17.3,3.2,34.6,4.9,51.9c-11.4,5.2-23.8,7.8-36.2,7.9c-12.7,0-25.2-2.7-36.7-8
			c1.7-17.6,3.3-35.2,5-52.8c-6.5,2.8-14-0.3-16.7-6.9s0.3-14.2,6.8-16.9c5.7-2.4,12.2-0.4,15.6,4.8c3.9-6,11.8-7.6,17.6-3.7
			c3.6,2.4,5.7,6.4,5.7,10.8c0.1-7.1,6-12.8,13-12.7c4.7,0.1,8.9,2.7,11.1,6.9c3.3-6.3,11-8.7,17.2-5.4s8.6,11.1,5.3,17.4
			c-2.2,4.2-6.5,6.9-11.2,6.9V43.7z"/>
		<path class="st2" d="M1882.1,207.7c1.1,0,3,0.2,5.1,0.9c4.1,1.3,5.4,3.1,8.3,3.5c1.5,0.2,3.7,0.1,6.7-1.7
			c2.1,5.7,5.2,16.6,4.6,30.5c-0.6,13.8-4.7,24.1-7.2,29.5c-1,0.8-3.5,2.7-7.1,2.8c-4.4,0.2-7.5-2.3-8.3-3
			C1883.5,249.4,1882.8,228.6,1882.1,207.7z"/>
		<rect x="1837" y="230.7" class="st2" width="69.8" height="7.4"/>
		
			<ellipse transform="matrix(0.6661 -0.7459 0.7459 0.6661 447.3041 1449.8472)" class="st1" cx="1843" cy="225.3" rx="37" ry="7.9"/>
	</g>
	<path class="st0" d="M1895.2,123.4c0.4-1.6,1.2-3,2.4-4.2c1.6-1.5,3.9-2.3,6.1-2c1.8,0.4,3.4,1.6,4.4,3.1c1.1,1.7,1.7,3.6,1.8,5.6
		c0.6,2.3,0.6,4.6,0,6.9c-0.5,1.6-1.4,2.9-2.7,3.9c-1.8,1.2-4,1.6-6.1,1.1c-1.7-0.1-3.3-0.8-4.5-2c-1-1.4-1.7-3.1-1.8-4.9
		c-0.2-1.3-0.3-2.6-0.3-4C1894.5,125.9,1894.8,124.6,1895.2,123.4z"/>
	<ellipse class="st3" cx="1902.4" cy="130.4" rx="6.5" ry="6.6"/>
	<path class="st4" d="M1913.7,151.8c-2.6-2.4-5.1-4.2-5.8-3.7c-0.8,0.5,0.7,3.5,0,3.9s-5.3-5.5-7.3-4.6c-0.8,0.3-1,1.5-1.1,2.5"/>
</g>
</svg>
