<svg id="Layer_1" data-name="Layer 1" xmlns="http://www.w3.org/2000/svg" viewBox="0 0 2000 320"><defs><style>.cls-1,.cls-6,.cls-8,.cls-9{fill:none;}.cls-1,.cls-2,.cls-4{stroke:#495057;}.cls-1,.cls-2,.cls-3,.cls-4,.cls-6,.cls-8,.cls-9{stroke-miterlimit:10;}.cls-2,.cls-4,.cls-5{fill:#c3e6ea;}.cls-2,.cls-3,.cls-6{stroke-width:0.5px;}.cls-3,.cls-7{fill:#495057;}.cls-3,.cls-6,.cls-8,.cls-9{stroke:#c3e6ea;}.cls-4{stroke-width:0.25px;}.cls-9{stroke-width:2px;}</style></defs><title>chick</title><path class="cls-1" d="M1945.34,59.38a20.91,20.91,0,0,1,0,29.58,16.74,16.74,0,0,1-23.66,0,13.38,13.38,0,0,1,0-18.93,10.71,10.71,0,0,1,15.14,0,8.55,8.55,0,0,1,0,12.11,6.84,6.84,0,0,1-9.69,0,5.48,5.48,0,0,1,0-7.75,4.39,4.39,0,0,1,6.2,0,3.51,3.51,0,0,1,0,5,2.8,2.8,0,0,1-4,0"/><path class="cls-1" d="M1820.11,110.5a20.84,20.84,0,0,1-29.44,1.48,16.67,16.67,0,0,1-1.18-23.55,13.33,13.33,0,0,1,18.84-1,10.67,10.67,0,0,1,.76,15.07,8.54,8.54,0,0,1-12.06.61,6.83,6.83,0,0,1-.49-9.65,5.46,5.46,0,0,1,7.72-.38,4.37,4.37,0,0,1,.31,6.17,3.51,3.51,0,0,1-4.94.25,2.8,2.8,0,0,1-.2-4"/><path class="cls-1" d="M1898,15.81a12,12,0,0,1-17,0,9.6,9.6,0,0,1,0-13.56,7.68,7.68,0,0,1,10.86,0,6.15,6.15,0,0,1,0,8.68,4.91,4.91,0,0,1-7,0,3.92,3.92,0,0,1,0-5.56,3.15,3.15,0,0,1,4.44,0,2.5,2.5,0,0,1,0,3.56,2,2,0,0,1-2.84,0,1.61,1.61,0,0,1,0-2.28"/><path class="cls-1" d="M1654.34,59.38a20.91,20.91,0,0,1,0,29.58,16.74,16.74,0,0,1-23.66,0,13.38,13.38,0,0,1,0-18.93,10.71,10.71,0,0,1,15.14,0,8.55,8.55,0,0,1,0,12.11,6.84,6.84,0,0,1-9.69,0,5.48,5.48,0,0,1,0-7.75,4.39,4.39,0,0,1,6.2,0,3.51,3.51,0,0,1,0,5,2.8,2.8,0,0,1-4,0"/><path class="cls-1" d="M1599.11,110.5a20.84,20.84,0,0,1-29.44,1.48,16.67,16.67,0,0,1-1.18-23.55,13.33,13.33,0,0,1,18.84-1,10.67,10.67,0,0,1,.76,15.07,8.54,8.54,0,0,1-12.06.61,6.83,6.83,0,0,1-.49-9.65,5.46,5.46,0,0,1,7.72-.38,4.37,4.37,0,0,1,.31,6.17,3.51,3.51,0,0,1-4.94.25,2.8,2.8,0,0,1-.2-4"/><path class="cls-1" d="M1398.21,24.57a12,12,0,0,1-17,0,9.58,9.58,0,0,1,0-13.56,7.67,7.67,0,0,1,10.85,0,6.13,6.13,0,0,1,0,8.68,4.9,4.9,0,0,1-6.94,0,3.92,3.92,0,0,1,0-5.56,3.13,3.13,0,0,1,4.44,0,2.52,2.52,0,0,1,0,3.56,2,2,0,0,1-2.84,0,1.61,1.61,0,0,1,0-2.28"/><path class="cls-1" d="M654.45,28.21a12,12,0,0,1-17,0,9.61,9.61,0,0,1,0-13.57,7.7,7.7,0,0,1,10.86,0,6.16,6.16,0,0,1,0,8.69,4.91,4.91,0,0,1-7,0,3.94,3.94,0,0,1,0-5.56,3.14,3.14,0,0,1,4.45,0,2.52,2.52,0,0,1,0,3.56,2,2,0,0,1-2.85,0,1.61,1.61,0,0,1,0-2.28"/><rect class="cls-2" x="406.34" y="242.98" width="10.97" height="10.97"/><path class="cls-3" d="M348.75,259.48c0,8.16-2.63,12-5.14,14.06-4.66,3.65-10.93,2.3-13.84,7.29-.37.62-1.64,3.06-.66,4.7.55,1,1.86,1.6,5.57,1.57,5.11,0,8.38-1.32,19-5.14,3.64-1.28,4.26-1.53,5.13-2.44,2.7-2.92,2.08-7.29,1.35-13s-1.31-9.58-3.64-10.49C353.23,255,349.33,258.9,348.75,259.48Z"/><path class="cls-3" d="M393.34,255.25c-1,8.08.91,12.27,3.1,14.57,4.08,4.41,10.49,3.64,12.64,9.25.29.66,1.24,3.24,0,4.74-.66.84-2,1.31-5.72.76-5.07-.76-8.13-2.51-18.22-7.76-3.35-1.78-4-2.15-4.73-3.17-2.26-3.27-1-7.61.51-13s2.62-9.33,5.21-9.87C389.51,250.18,392.83,254.55,393.34,255.25Z"/><path class="cls-3" d="M404.16,234.86a61.33,61.33,0,0,1,1.89,8.6c.66,4.15.48,5.5,1.1,5.72,1.85.58,10.31-10.28,10.16-21.54-.22-17.85-21.86-29.14-25.5-31A61.36,61.36,0,0,0,346.52,193c-8.16,2.52-16.9,10.39-34.42,26.12-2.52,2.3-6.6,6-5.72,9.58,1,4.19,8.45,5.54,9.54,5.72,10.57,1.9,19.64-5.57,22.34-8-.37,2.8-1,6.88-1.94,11.8-2.18,11.29-3.64,13.22-2.87,16.25,2,8.38,16.61,11.69,24.22,13.4,17.82,4,46.23,5,50.39-5.75,1.09-2.88,0-8.2-1.93-18.8C405.36,239.81,404.67,236.83,404.16,234.86Z"/><path class="cls-2" d="M349,205.42c-5.54,17.63-14.57,49.11-8.7,53.34a26.33,26.33,0,0,0,6.19,1.53c4.84,1,8.23,1.31,10.93,1.67,9.83,1.24,8.63,2.08,13.81,2.37a52.8,52.8,0,0,0,17.26-2.22,25.22,25.22,0,0,0,9.77-3.64c9.36-9.08-5.87-48.2-6.92-51l-6.78.4a55,55,0,0,1,.36,8.89,16.61,16.61,0,0,1-.73,6.34c-1.2,2.15-3.64,2.73-13.58,2.44-12.32-.33-14.18-1.31-15.2-3.17a32.3,32.3,0,0,1-1.23-8.63c-.3-3.35-.41-6.12-.48-8Z"/><path class="cls-3" d="M313.34,147.13c3.42-10.38,2.55-12.53,5.46-21.16a69,69,0,0,1,10.93-21.54c16.69-19.7,51.66-13.84,58.76-12.64,11.7,2,23.68,4,31.77,13.66,2,2.45,5.58,11.33,12.64,29.15a153.57,153.57,0,0,1,6.49,17.78c2.88,10.93,4.66,17.52,3.06,25.5a40.11,40.11,0,0,1-23.21,28c-5.21,2.18-9.18,2.4-18.8,2.73-32.46,1.09-48.89,1.6-58.76-.69-13.63-3.17-23.43-5.58-30.06-14.58a38.08,38.08,0,0,1-6.15-25.5C306.49,160.17,309,160,313.34,147.13Z"/><path class="cls-4" d="M403,239.85a304.43,304.43,0,0,1-32.79,2,309.35,309.35,0,0,1-32.5-1.42l1.61-7.58A255.11,255.11,0,0,0,370.61,235a250.07,250.07,0,0,0,31.07-1.71,16.55,16.55,0,0,0,.51,2.92C402.37,237.19,402.77,238.65,403,239.85Z"/><path class="cls-5" d="M348.71,177.11a26.48,26.48,0,0,1,51,0A42.4,42.4,0,0,1,390,186.3a138.48,138.48,0,0,1-13.66,6.88h0A61.66,61.66,0,0,1,361,186.59,63.54,63.54,0,0,1,348.71,177.11Z"/><path class="cls-2" d="M408.35,45.13h-1.28q2.52,26.62,5.07,53.29a92.42,92.42,0,0,1-76,0q2.61-27.13,5.17-54.25a13.3,13.3,0,1,1,5.94-19.56,13.26,13.26,0,0,1,24.33,7.29,13.3,13.3,0,0,1,25.07-6.2,13.26,13.26,0,1,1,11.73,19.39Z"/><path class="cls-6" d="M431.85,173.18c-3.14-2.84-6.09-5.06-7-4.41s.88,4.16,0,4.67-6.3-6.6-8.78-5.54c-.95.36-1.2,1.86-1.31,2.95"/><path class="cls-5" d="M397,147.13a6.91,6.91,0,0,1,1.75-3.13,5.7,5.7,0,0,1,4.63-1.46,5.39,5.39,0,0,1,3.35,2.3,8.32,8.32,0,0,1,1.35,4.19,10.13,10.13,0,0,1,0,5.13,5.81,5.81,0,0,1-1.9,3,5.94,5.94,0,0,1-4.62.84,5.31,5.31,0,0,1-3.43-1.46,7,7,0,0,1-1.35-3.64,13.87,13.87,0,0,1-.22-2.95A12.75,12.75,0,0,1,397,147.13Z"/><circle class="cls-7" cx="402.41" cy="152.34" r="4.88"/><path class="cls-5" d="M340.48,145.82a7.19,7.19,0,0,1,1.75-3.17,5.56,5.56,0,0,1,4.62-1.46,5.44,5.44,0,0,1,3.35,2.34,8.59,8.59,0,0,1,1.21,4.18,10.52,10.52,0,0,1,0,5.11,5.14,5.14,0,0,1-6.52,3.86,5.36,5.36,0,0,1-3.43-1.46,6.68,6.68,0,0,1-1.35-3.64,11.71,11.71,0,0,1-.22-3A10,10,0,0,1,340.48,145.82Z"/><circle class="cls-7" cx="345.87" cy="151.03" r="5.03"/><path class="cls-6" d="M323.72,173.2c3.13-2.85,6.08-5.1,7-4.41s-.87,4.11,0,4.66,6.31-6.63,8.78-5.57c.95.4,1.21,1.89,1.32,3"/><path class="cls-6" d="M1817.23,173.23c3.14-2.84,6.09-5.1,7-4.41s-.88,4.12,0,4.66,6.3-6.59,8.78-5.57c1,.4,1.2,1.89,1.31,3"/><path class="cls-6" d="M1817.23,173.23c3.14-2.84,6.09-5.1,7-4.41s-.88,4.12,0,4.66,6.3-6.59,8.78-5.57c1,.4,1.2,1.89,1.31,3"/><path class="cls-3" d="M1894.14,258.26c-1,8.09.91,12.31,3.1,14.57,4.08,4.41,10.49,3.64,12.64,9.25.29.66,1.24,3.25,0,4.74-.66.84-2,1.31-5.72.73-5.07-.73-8.13-2.48-18.22-7.76-3.35-1.79-4-2.11-4.73-3.17-2.26-3.24-1-7.61.51-13s2.62-9.29,5.21-9.83C1890.31,253.23,1893.63,257.6,1894.14,258.26Z"/><path class="cls-3" d="M1849.55,257.49c0,8.16-2.63,12.06-5.14,14.1-4.66,3.65-10.93,2.3-13.84,7.29-.37.62-1.64,3.06-.66,4.7.55.91,1.86,1.57,5.58,1.57,5.1,0,8.37-1.35,19-5.14,3.64-1.31,4.26-1.53,5.13-2.48,2.7-2.91,2.08-7.29,1.35-12.93s-1.31-9.62-3.64-10.53C1854,253.05,1850.13,256.91,1849.55,257.49Z"/><path class="cls-3" d="M1905,234.91c1.22.21,3,.49,5.21.65,5.65.4,9.84.71,12.42-1.35,3.81-3,2.62-10.11,2.62-10.92,0-14.58-30.78-26-32.78-26.78a66.47,66.47,0,0,0-45.29-3.64c-8.16,2.51-16.9,10.41-34.42,26.15-2.52,2.26-6.6,6-5.72,9.55,1,4.22,8.45,5.54,9.54,5.75,10.57,1.9,19.64-5.61,22.33-8-.36,2.8-1,6.88-1.93,11.8-2.18,11.29-3.64,13.19-2.88,16.25,2,8.38,16.62,11.66,24.23,13.37,17.82,4,46.23,5.06,50.39-5.72,1.09-2.88,0-8.2-1.94-18.8C1906.16,239.82,1905.47,236.87,1905,234.91Z"/><path class="cls-2" d="M1849.8,205.32c-5.53,17.64-14.57,49.15-8.7,53.38a28.6,28.6,0,0,0,6.19,1.53c4.84.94,8.23,1.31,10.93,1.67,9.83,1.24,8.63,2,13.81,2.33a50.68,50.68,0,0,0,17.26-2.22,24.54,24.54,0,0,0,9.77-3.64c9.36-9.11-5.87-48.24-6.92-51l-6.78.44a54.57,54.57,0,0,1,.36,8.85A17,17,0,0,1,1885,223c-1.21,2.15-3.65,2.7-13.59,2.44-12.32-.36-14.18-1.35-15.2-3.2a32.09,32.09,0,0,1-1.23-8.6c-.3-3.35-.4-6.12-.48-8Z"/><path class="cls-3" d="M1814.14,147c3.42-10.42,2.55-12.57,5.46-21.2a68.28,68.28,0,0,1,10.93-21.5c16.69-19.71,51.66-13.84,58.76-12.64,11.7,2,23.68,4,31.77,13.66,2,2.41,5.58,11.33,12.64,29.15a157.45,157.45,0,0,1,6.49,17.74c2.88,10.93,4.66,17.52,3.06,25.5a40.11,40.11,0,0,1-23.21,28c-5.21,2.18-9.18,2.4-18.8,2.73-32.46,1.09-48.89,1.6-58.76-.69-13.63-3.17-23.43-5.61-30.06-14.58a38.13,38.13,0,0,1-6.15-25.5C1807.29,160.19,1809.84,160,1814.14,147Z"/><path class="cls-4" d="M1903.83,239.9a315.22,315.22,0,0,1-32.79,2,306.4,306.4,0,0,1-32.49-1.46l1.6-7.54a257.21,257.21,0,0,0,31.26,2.08,260.08,260.08,0,0,0,31.07-1.68,16.12,16.12,0,0,0,.51,2.88C1903.17,237.17,1903.57,238.7,1903.83,239.9Z"/><path class="cls-5" d="M1897.78,147.18a6.91,6.91,0,0,1,1.75-3.13,5.54,5.54,0,0,1,4.63-1.5,5.44,5.44,0,0,1,3.35,2.34,8.29,8.29,0,0,1,1.35,4.19,10.24,10.24,0,0,1,0,5.1,5.87,5.87,0,0,1-1.9,3,5.94,5.94,0,0,1-4.62.84,5.49,5.49,0,0,1-3.43-1.46,7,7,0,0,1-1.35-3.64,13.33,13.33,0,0,1-.21-2.95A11.12,11.12,0,0,1,1897.78,147.18Z"/><circle class="cls-7" cx="1902.3" cy="147.36" r="3.53"/><path class="cls-5" d="M1849.51,177.13a26.52,26.52,0,0,1,51,0,40.87,40.87,0,0,1-9.9,9.47,137.89,137.89,0,0,1-13.67,6.92h0a61.09,61.09,0,0,1-27.43-16.25Z"/><path class="cls-2" d="M1909.15,45.28h-1.28q2.52,26.67,5.07,53.3a92.51,92.51,0,0,1-37.78,8.16,92.35,92.35,0,0,1-38.25-8.19q2.61-27.1,5.17-54.21A13.3,13.3,0,1,1,1848,24.77a13.26,13.26,0,0,1,24.33,7.29,13.3,13.3,0,0,1,25.07-6.19,13.26,13.26,0,1,1,11.73,19.49Z"/><path class="cls-6" d="M1932.65,173.23c-3.14-2.84-6.09-5.1-7-4.41s.88,4.12,0,4.66-6.3-6.59-8.78-5.57c-.95.4-1.2,1.89-1.31,3"/><path class="cls-5" d="M1897.78,147.18a6.91,6.91,0,0,1,1.75-3.13,5.54,5.54,0,0,1,4.63-1.5,5.44,5.44,0,0,1,3.35,2.34,8.29,8.29,0,0,1,1.35,4.19,10.24,10.24,0,0,1,0,5.1,5.87,5.87,0,0,1-1.9,3,5.94,5.94,0,0,1-4.62.84,5.49,5.49,0,0,1-3.43-1.46,7,7,0,0,1-1.35-3.64,13.33,13.33,0,0,1-.21-2.95A11.12,11.12,0,0,1,1897.78,147.18Z"/><circle class="cls-7" cx="1902.3" cy="147.36" r="3.53"/><path class="cls-5" d="M1849.51,177.13a26.52,26.52,0,0,1,51,0,40.87,40.87,0,0,1-9.9,9.47,137.89,137.89,0,0,1-13.67,6.92h0a61.09,61.09,0,0,1-27.43-16.25Z"/><path class="cls-6" d="M1932.65,173.23c-3.14-2.84-6.09-5.1-7-4.41s.88,4.12,0,4.66-6.3-6.59-8.78-5.57c-.95.4-1.2,1.89-1.31,3"/><rect class="cls-2" x="1898.35" y="148.03" width="10.97" height="97.31" transform="translate(44.13 649.2) rotate(-19.57)"/><ellipse class="cls-3" cx="1918.64" cy="225.19" rx="7.5" ry="10.57" transform="translate(-7.1 378.17) rotate(-11.24)"/><path class="cls-5" d="M1897.78,147.18a6.91,6.91,0,0,1,1.75-3.13,5.54,5.54,0,0,1,4.63-1.5,5.44,5.44,0,0,1,3.35,2.34,8.29,8.29,0,0,1,1.35,4.19,10.24,10.24,0,0,1,0,5.1,5.87,5.87,0,0,1-1.9,3,5.94,5.94,0,0,1-4.62.84,5.49,5.49,0,0,1-3.43-1.46,7,7,0,0,1-1.35-3.64,13.33,13.33,0,0,1-.21-2.95A11.12,11.12,0,0,1,1897.78,147.18Z"/><circle class="cls-7" cx="1903.21" cy="152.39" r="4.88"/><path class="cls-5" d="M1841.28,145.87a7.09,7.09,0,0,1,1.75-3.17,5.1,5.1,0,0,1,7.21-.11,5,5,0,0,1,.76.95,8.69,8.69,0,0,1,1.35,4.22,10.48,10.48,0,0,1,0,5.1,5.88,5.88,0,0,1-1.89,3,6.29,6.29,0,0,1-4.63.84,5.41,5.41,0,0,1-3.42-1.5,6.35,6.35,0,0,1-1.35-3.64,10.82,10.82,0,0,1-.22-3A9.66,9.66,0,0,1,1841.28,145.87Z"/><circle class="cls-7" cx="1846.67" cy="151.08" r="5.03"/><path class="cls-6" d="M1824.61,173.22c3.13-2.85,6.08-5.07,7-4.41s-.87,4.15,0,4.66,6.31-6.59,8.78-5.54c.95.37,1.21,1.86,1.32,2.95"/><path class="cls-3" d="M1143.74,256.24c-1,8.09.91,12.28,3.1,14.57,4.08,4.41,10.49,3.86,12.64,9.26.29.65,1.24,3.27,0,4.73-.66.88-2,1.31-5.72.77-5.06-.77-8.13-2.48-18.22-7.76-3.35-1.79-4-2.12-4.73-3.17-2.26-3.24-1-7.62.51-13s2.62-9.32,5.21-9.87C1139.92,251.18,1143.23,255.58,1143.74,256.24Z"/><path class="cls-3" d="M1099.15,258.47c0,8.17-2.62,12.06-5.14,14.07-4.66,3.64-10.93,2.33-13.84,7.28-.37.59-1.64,3.06-.66,4.67.55.94,1.86,1.6,5.58,1.56,5.1,0,8.38-1.31,19-5.13,3.64-1.28,4.26-1.53,5.13-2.44,2.7-2.92,2.08-7.29,1.35-13s-1.31-9.59-3.64-10.5C1103.63,254,1099.73,257.89,1099.15,258.47Z"/><path class="cls-3" d="M1154.56,234.85a26.38,26.38,0,0,0,5.54,5.06c2.77,1.86,4.33,2.92,6.12,2.59,2.88-.51,4.37-4.26,6-8.3a34.15,34.15,0,0,0,2.63-10.93c0-14.58-30.79-25.94-32.79-26.78a66.76,66.76,0,0,0-45.29-3.64c-8.16,2.51-16.9,10.38-34.42,26.12-2.52,2.29-6.6,6-5.72,9.58,1,4.22,8.45,5.54,9.54,5.72,10.57,1.89,19.64-5.58,22.33-7.94-.36,2.76-1,6.88-1.93,11.76-2.18,11.3-3.64,13.23-2.87,16.29,2,8.38,16.61,11.66,24.22,13.37,17.82,4,46.23,5.06,50.39-5.72,1.09-2.92,0-8.2-1.93-18.84C1155.76,239.81,1155.07,236.82,1154.56,234.85Z"/><path class="cls-2" d="M1099.4,205.31c-5.53,17.63-14.57,49.14-8.7,53.37a28.6,28.6,0,0,0,6.19,1.53c4.85.94,8.23,1.31,10.93,1.64,9.84,1.24,8.63,2.07,13.81,2.36A51.52,51.52,0,0,0,1138.9,262a24.86,24.86,0,0,0,9.76-3.64c9.36-9.07-5.87-48.2-6.92-51l-6.78.4a55,55,0,0,1,.36,8.89,17,17,0,0,1-.91,6.44c-1.2,2.15-3.64,2.7-13.58,2.41-12.32-.33-14.18-1.31-15.2-3.17a31.92,31.92,0,0,1-1.23-8.64c-.3-3.35-.41-6.12-.48-8Z"/><path class="cls-3" d="M1063.74,146.94c3.42-10.38,2.55-12.53,5.46-21.16a68.85,68.85,0,0,1,10.93-21.53c16.69-19.71,51.66-13.81,58.77-12.65,11.69,2,23.68,4,31.76,13.67,2,2.44,5.58,11.33,12.64,29.14a156.14,156.14,0,0,1,6.49,17.78c2.88,10.93,4.66,17.52,3.06,25.5a40.09,40.09,0,0,1-23.21,28c-5.21,2.22-9.18,2.4-18.8,2.73-32.46,1.13-48.89,1.6-58.76-.69-13.62-3.14-23.42-5.58-30-14.58a38,38,0,0,1-6.16-25.5C1056.89,160.17,1059.44,160,1063.74,146.94Z"/><path class="cls-4" d="M1153.43,239.88a312.45,312.45,0,0,1-32.79,2,306.48,306.48,0,0,1-32.49-1.42l1.6-7.54A265.66,265.66,0,0,0,1121,235a260.08,260.08,0,0,0,31.07-1.68,16.61,16.61,0,0,0,.51,2.88C1152.78,237.18,1153.18,238.64,1153.43,239.88Z"/><path class="cls-5" d="M1099.11,177.11a26.53,26.53,0,0,1,51,0,41,41,0,0,1-9.91,9.36,137.48,137.48,0,0,1-13.66,6.89h0a60.69,60.69,0,0,1-27.44-16.22Z"/><path class="cls-6" d="M1182.25,173.21c-3.13-2.88-6.09-5.1-7-4.41s.88,4.12,0,4.66-6.3-6.63-8.78-5.57c-.94.4-1.2,1.9-1.31,3"/><path class="cls-5" d="M1099.11,177.11a26.53,26.53,0,0,1,51,0,41,41,0,0,1-9.91,9.36,137.48,137.48,0,0,1-13.66,6.89h0a60.69,60.69,0,0,1-27.44-16.22Z"/><path class="cls-6" d="M1182.25,173.21c-3.13-2.88-6.09-5.1-7-4.41s.88,4.12,0,4.66-6.3-6.63-8.78-5.57c-.94.4-1.2,1.9-1.31,3"/><rect class="cls-2" x="1146.73" y="214.52" width="46.12" height="10.24" transform="translate(770.45 1340.87) rotate(-81.03)"/><ellipse class="cls-3" cx="1175.43" cy="232.93" rx="10.38" ry="5.94" transform="translate(712.16 1338.04) rotate(-78.47)"/><path class="cls-2" d="M1158.75,45.26h-1.27q2.51,26.67,5.06,53.3a92.47,92.47,0,0,1-76,0q2.63-27.15,5.17-54.25a12.76,12.76,0,0,1-5.17,1.06,13.3,13.3,0,1,1,10.93-20.62A13.26,13.26,0,0,1,1121.77,32a13.3,13.3,0,0,1,25.07-6.19,13.26,13.26,0,1,1,11.73,19.49Z"/><path class="cls-5" d="M1147.38,147.05a7,7,0,0,1,1.75-3.13,5.5,5.5,0,0,1,4.63-1.49,5.38,5.38,0,0,1,3.35,2.33,8.22,8.22,0,0,1,1.35,4.19,10,10,0,0,1,0,5.1,5.7,5.7,0,0,1-1.9,3,5.94,5.94,0,0,1-4.62.84,5.49,5.49,0,0,1-3.43-1.46,7,7,0,0,1-1.35-3.64,13.24,13.24,0,0,1-.21-2.95A11.66,11.66,0,0,1,1147.38,147.05Z"/><circle class="cls-7" cx="1152.81" cy="152.26" r="4.88"/><path class="cls-5" d="M1090.88,145.74a7.09,7.09,0,0,1,1.75-3.17,5.1,5.1,0,0,1,7.21-.11,5.43,5.43,0,0,1,.77.95,8.79,8.79,0,0,1,1.34,4.23,10.48,10.48,0,0,1,0,5.1,5.85,5.85,0,0,1-1.89,3,6.28,6.28,0,0,1-4.63.84,5.43,5.43,0,0,1-3.42-1.5,6.33,6.33,0,0,1-1.35-3.64,10.82,10.82,0,0,1-.22-3A9.66,9.66,0,0,1,1090.88,145.74Z"/><circle class="cls-7" cx="1096.27" cy="150.95" r="5.03"/><path class="cls-6" d="M1074.07,173.21c3.14-2.84,6.09-5.1,7-4.41s-.88,4.12,0,4.66,6.3-6.63,8.78-5.57c1,.4,1.2,1.9,1.31,3"/><path class="cls-6" d="M1182.2,173.21c-3.13-2.84-6.08-5.1-7-4.41s.87,4.12,0,4.66-6.31-6.63-8.78-5.57c-1,.4-1.21,1.9-1.32,3"/><path class="cls-1" d="M433.51,123.28a8.55,8.55,0,0,1-12.08,0,6.86,6.86,0,0,1,0-9.67,5.49,5.49,0,0,1,7.74,0,4.39,4.39,0,0,1,0,6.19,3.51,3.51,0,0,1-4.95,0,2.79,2.79,0,0,1,0-4,2.24,2.24,0,0,1,3.16,0,1.79,1.79,0,0,1,0,2.53,1.42,1.42,0,0,1-2,0,1.14,1.14,0,0,1,0-1.62"/><path class="cls-1" d="M327.74,106.25a8.55,8.55,0,0,1,.61,12.07,6.83,6.83,0,0,1-9.65.48,5.46,5.46,0,0,1-.39-7.72,4.38,4.38,0,0,1,6.18-.31,3.5,3.5,0,0,1,.24,4.94,2.79,2.79,0,0,1-4,.2,2.23,2.23,0,0,1-.16-3.16,1.79,1.79,0,0,1,2.53-.13,1.43,1.43,0,0,1,.1,2,1.15,1.15,0,0,1-1.62.09"/><path class="cls-3" d="M1393.87,258.26c-1,8.09.91,12.31,3.1,14.57,4.08,4.41,10.49,3.64,12.64,9.25.29.66,1.24,3.25,0,4.74-.66.84-2,1.31-5.72.73-5.06-.73-8.12-2.48-18.21-7.76-3.36-1.79-4-2.11-4.74-3.13-2.26-3.28-1-7.65.51-13.05s2.62-9.29,5.21-9.83C1390.05,253.23,1393.36,257.6,1393.87,258.26Z"/><path class="cls-3" d="M1349.28,257.49c0,8.16-2.62,12.06-5.14,14.1-4.66,3.65-10.93,2.3-13.84,7.29-.36.62-1.64,3.06-.66,4.7.55.91,1.86,1.57,5.58,1.57,5.1,0,8.38-1.35,19-5.14,3.64-1.31,4.26-1.53,5.14-2.48,2.69-2.88,2.07-7.29,1.34-12.93s-1.31-9.62-3.64-10.49C1353.76,253.05,1349.86,256.91,1349.28,257.49Z"/><path class="cls-3" d="M1404.69,234.91a26.65,26.65,0,0,0,5.54,5.06c2.77,1.82,4.34,2.88,6.12,2.59,2.88-.55,4.37-4.3,6-8.35a34.28,34.28,0,0,0,2.62-10.92c0-14.58-30.79-26-32.79-26.78a66.44,66.44,0,0,0-45.28-3.64c-8.16,2.51-16.91,10.41-34.43,26.15-2.51,2.26-6.59,6-5.72,9.55,1,4.22,8.45,5.54,9.54,5.75,10.57,1.9,19.64-5.61,22.34-8-.37,2.8-1,6.88-1.93,11.8-2.19,11.29-3.65,13.19-2.88,16.25,2,8.38,16.61,11.66,24.22,13.4,17.82,4,46.24,5,50.39-5.75,1.09-2.88,0-8.2-1.93-18.8C1405.89,239.82,1405.2,236.87,1404.69,234.91Z"/><path class="cls-2" d="M1349.54,205.32C1344,223,1335,254.47,1340.83,258.7a28.74,28.74,0,0,0,6.19,1.53c4.85.94,8.24,1.31,10.93,1.67,9.84,1.24,8.64,2,13.81,2.33A50.76,50.76,0,0,0,1389,262a24.55,24.55,0,0,0,9.76-3.64c9.36-9.11-5.86-48.24-6.92-51l-6.78.44a55.73,55.73,0,0,1,.37,8.85,17.22,17.22,0,0,1-.91,6.45c-1.21,2.15-3.65,2.7-13.59,2.44-12.32-.36-14.17-1.34-15.19-3.2a32.1,32.1,0,0,1-1.24-8.6c-.29-3.35-.4-6.12-.48-8Z"/><path class="cls-3" d="M1313.87,147c3.42-10.42,2.55-12.57,5.46-21.2a68.81,68.81,0,0,1,10.93-21.5C1347,84.59,1381.92,90.46,1389,91.66c11.69,2,23.68,4,31.76,13.66,2,2.41,5.58,11.33,12.65,29.15a157.39,157.39,0,0,1,6.48,17.74c2.88,10.93,4.66,17.52,3.06,25.5a40.09,40.09,0,0,1-23.21,28c-5.2,2.18-9.18,2.4-18.79,2.73-32.46,1.09-48.89,1.6-58.77-.69-13.62-3.17-23.42-5.61-30-14.58a38.08,38.08,0,0,1-6.16-25.5C1307,160.19,1309.57,160,1313.87,147Z"/><path class="cls-4" d="M1403.56,239.9a315,315,0,0,1-32.78,2,306.58,306.58,0,0,1-32.5-1.46l1.6-7.54a249.53,249.53,0,0,0,31.26,2.08,260.36,260.36,0,0,0,31.08-1.68,15.28,15.28,0,0,0,.51,2.88C1402.91,237.17,1403.31,238.7,1403.56,239.9Z"/><path class="cls-5" d="M1349.24,177.13a26.53,26.53,0,0,1,51,0,41.19,41.19,0,0,1-9.77,9.18,138.8,138.8,0,0,1-13.66,6.92h0A61.09,61.09,0,0,1,1349.39,177Z"/><path class="cls-2" d="M1408.88,45.28h-1.27q2.63,26.6,5.06,53.37a92.44,92.44,0,0,1-37.78,8,92.13,92.13,0,0,1-38.25-8q2.63-27.11,5.17-54.2a13.3,13.3,0,1,1,5.94-19.57,13.26,13.26,0,0,1,24.34,7.29,13.3,13.3,0,0,1,25.06-6.38,13.26,13.26,0,1,1,11.73,19.49Z"/><path class="cls-5" d="M1341,146a7,7,0,0,1,1.75-3.17,5.09,5.09,0,0,1,7.21-.11,5.36,5.36,0,0,1,.77.94,8.84,8.84,0,0,1,1.35,4.23,10.48,10.48,0,0,1,0,5.1,5.89,5.89,0,0,1-1.9,3,6.27,6.27,0,0,1-4.63.84,5.37,5.37,0,0,1-3.42-1.49,6.38,6.38,0,0,1-1.35-3.65,11.2,11.2,0,0,1-.22-2.95A9.54,9.54,0,0,1,1341,146Z"/><circle class="cls-7" cx="1345.49" cy="146.02" r="3.53"/><path class="cls-6" d="M1432.38,173.23c-3.13-2.84-6.08-5.1-7-4.41s.87,4.12,0,4.66-6.31-6.59-8.78-5.57c-.95.4-1.21,1.89-1.32,3"/><path class="cls-5" d="M1349.24,177.13a26.53,26.53,0,0,1,51,0,41.19,41.19,0,0,1-9.77,9.18,138.8,138.8,0,0,1-13.66,6.92h0A61.09,61.09,0,0,1,1349.39,177Z"/><path class="cls-6" d="M1432.38,173.23c-3.13-2.84-6.08-5.1-7-4.41s.87,4.12,0,4.66-6.31-6.59-8.78-5.57c-.95.4-1.21,1.89-1.32,3"/><rect class="cls-2" x="1386.41" y="202.36" width="70.86" height="10.24" transform="translate(995.21 1579.58) rotate(-81.03)"/><ellipse class="cls-3" cx="1426.35" cy="233.1" rx="10.38" ry="5.94" transform="translate(912.74 1584.03) rotate(-78.47)"/><path class="cls-5" d="M1397.52,147.18a6.89,6.89,0,0,1,1.74-3.13,5.54,5.54,0,0,1,4.63-1.5,5.44,5.44,0,0,1,3.35,2.34,8.19,8.19,0,0,1,1.35,4.19,10,10,0,0,1,0,5.1,5.85,5.85,0,0,1-1.89,3,6,6,0,0,1-4.63.84,5.49,5.49,0,0,1-3.43-1.46,6.94,6.94,0,0,1-1.34-3.64,12.76,12.76,0,0,1-.22-2.95A11.13,11.13,0,0,1,1397.52,147.18Z"/><circle class="cls-7" cx="1402.94" cy="152.39" r="4.88"/><path class="cls-5" d="M1341,146a7,7,0,0,1,1.75-3.17,5.09,5.09,0,0,1,7.21-.11,5.36,5.36,0,0,1,.77.94,8.84,8.84,0,0,1,1.35,4.23,10.48,10.48,0,0,1,0,5.1,5.89,5.89,0,0,1-1.9,3,6.27,6.27,0,0,1-4.63.84,5.37,5.37,0,0,1-3.42-1.49,6.38,6.38,0,0,1-1.35-3.65,11.2,11.2,0,0,1-.22-2.95A9.54,9.54,0,0,1,1341,146Z"/><circle class="cls-7" cx="1346.4" cy="151.08" r="5.03"/><path class="cls-6" d="M1324.34,173.22c3.14-2.85,6.09-5.07,7-4.41s-.88,4.15,0,4.66,6.3-6.59,8.78-5.54c1,.37,1.2,1.86,1.31,2.95"/><path class="cls-6" d="M1432.47,173.22c-3.13-2.85-6.08-5.07-7-4.41s.87,4.15,0,4.66-6.31-6.59-8.78-5.54c-1,.37-1.21,1.86-1.32,2.95"/><path class="cls-3" d="M98.61,257.06c0,8.24-2.62,12.19-5.13,14.26-4.67,3.69-10.93,2.32-13.85,7.38-.36.63-1.64,3.11-.65,4.77.54,1,1.86,1.63,5.57,1.59,5.1,0,8.38-1.33,19-5.21,3.64-1.29,4.26-1.55,5.14-2.51,2.69-2.92,2.07-7.39,1.35-13.12s-1.32-9.75-3.65-10.63C103.09,252.52,99.2,256.43,98.61,257.06Z"/><path class="cls-3" d="M143.2,257.83c-1,8.2.92,12.45,3.1,14.78,4.08,4.47,10.49,3.69,12.64,9.38.29.67,1.24,3.29,0,4.8-.65.85-2,1.33-5.72.78-5.06-.78-8.12-2.55-18.21-7.9-3.35-1.78-4-2.15-4.74-3.18-2.26-3.33-1-7.72.51-13.19s2.63-9.46,5.21-10C139.38,252.7,142.69,257.13,143.2,257.83Z"/><path class="cls-3" d="M154,234.12a26.81,26.81,0,0,0,11.8,7.76c2.55.77,9.51,3,12.42,0,4.3-4.47-2.95-17.81-3.82-19.4-9.58-17.54-27.11-24.86-32.79-27.15a65.5,65.5,0,0,0-45.29-3.69c-8.19,2.7-16.94,10.67-34.46,26.63-2.51,2.33-6.59,6.13-5.72,9.72,1,4.25,8.45,5.61,9.55,5.8,10.56,1.92,19.63-5.69,22.33-8.09-.37,2.84-1,7-1.93,12-2.19,11.45-3.65,13.4-2.88,16.47,2,8.5,16.61,11.86,24.23,13.59,17.81,4.07,46.23,5.1,50.38-5.83,1.09-2.92,0-8.31-1.93-19.06C155.23,239.14,154.54,236.11,154,234.12Z"/><path class="cls-2" d="M98.87,204.16C93.33,222,84.3,254,90.16,258.24a26.13,26.13,0,0,0,6.19,1.55c4.85,1,8.24,1.33,10.93,1.7,9.84,1.26,8.64,2.11,13.81,2.37a51.26,51.26,0,0,0,17.27-2.22,24.79,24.79,0,0,0,9.76-3.69c9.37-9.24-5.86-48.88-6.92-51.72l-6.77.41a58.43,58.43,0,0,1,.36,9,17.45,17.45,0,0,1-.73,6.58c-1.2,2.18-3.64,2.77-13.59,2.47-12.31-.33-14.17-1.36-15.19-3.25a32.51,32.51,0,0,1-1.24-8.72c-.29-3.39-.4-6.2-.47-8.12Z"/><path class="cls-3" d="M63.2,145c3.43-10.56,2.55-12.74,5.47-21.46A70.38,70.38,0,0,1,79.6,101.69c16.68-20,51.66-14,58.76-12.82,11.69,2,23.68,4,31.77,13.86,2,2.47,5.57,11.48,12.64,29.55a157.89,157.89,0,0,1,6.48,18c2.88,11.09,4.67,17.74,3.06,25.86a40.49,40.49,0,0,1-23.2,28.41c-5.21,2.21-9.18,2.44-18.8,2.77-32.46,1.11-48.89,1.62-58.76-.7-13.63-3.22-23.43-5.66-30.06-14.78A39,39,0,0,1,55.33,166C56.35,158.36,58.9,158.21,63.2,145Z"/><path class="cls-4" d="M152.9,239.18a309.85,309.85,0,0,1-32.79,2.07,294,294,0,0,1-32.5-1.48l1.6-7.65a253.46,253.46,0,0,0,31.26,2.15,264.55,264.55,0,0,0,31.08-1.74,17,17,0,0,0,.51,3C152.24,236.48,152.64,238,152.9,239.18Z"/><path class="cls-5" d="M98.58,179.23a26.43,26.43,0,0,1,51,0,42.42,42.42,0,0,1-9.76,9.34,146.32,146.32,0,0,1-13.66,7h0a60.05,60.05,0,0,1-27.44-16.47Z"/><path class="cls-2" d="M158.21,45.54h-1.27q2.52,27,5.06,54.05a92.14,92.14,0,0,1-37.78,8.2A91.26,91.26,0,0,1,86,99.48q2.63-27.49,5.18-55a13.24,13.24,0,0,1-17.43-7.18,13.55,13.55,0,0,1,7.09-17.66,13.19,13.19,0,0,1,16.27,5,13.16,13.16,0,0,1,18.37-3.84,13.5,13.5,0,0,1,6,11.22,13.26,13.26,0,0,1,25.06-6,13.19,13.19,0,0,1,17.92-5.61,13.54,13.54,0,0,1,5.54,18.17,13.24,13.24,0,0,1-11.73,7.17Z"/><path class="cls-6" d="M181.71,175.28c-3.13-2.89-6.08-5.18-7-4.47s.87,4.17,0,4.72-6.3-6.68-8.78-5.46c-.95.4-1.2,1.92-1.31,3"/><path class="cls-5" d="M146.85,148.86a7,7,0,0,1,1.78-3.17,5,5,0,0,1,8,.88,8.55,8.55,0,0,1,1.34,4.25,10.45,10.45,0,0,1,0,5.21,5.36,5.36,0,0,1-6.63,3.8,5.42,5.42,0,0,1-3.42-1.47,7.06,7.06,0,0,1-1.35-3.7,13.61,13.61,0,0,1-.22-3A11.75,11.75,0,0,1,146.85,148.86Z"/><ellipse class="cls-7" cx="152.28" cy="154.15" rx="4.88" ry="4.95"/><path class="cls-5" d="M90.34,147.53a7.49,7.49,0,0,1,1.75-3.21,5.05,5.05,0,0,1,8,.85,9.07,9.07,0,0,1,1.2,4.28,10.81,10.81,0,0,1,0,5.18,5.12,5.12,0,0,1-6.52,3.91A5.32,5.32,0,0,1,91.33,157a6.51,6.51,0,0,1-1.35-3.7,11.12,11.12,0,0,1-.22-3A10.42,10.42,0,0,1,90.34,147.53Z"/><ellipse class="cls-7" cx="95.74" cy="152.82" rx="5.03" ry="5.1"/><path class="cls-6" d="M73.68,175.32c3.13-2.85,6.08-5.1,7-4.41s-.87,4.11,0,4.66,6.3-6.63,8.78-5.57c1,.4,1.2,1.89,1.31,3"/><path class="cls-6" d="M181.8,175.32c-3.13-2.85-6.08-5.1-7-4.41s.87,4.11,0,4.66-6.3-6.63-8.78-5.57c-.95.4-1.2,1.89-1.31,3"/><path class="cls-6" d="M181.8,175.3c-3.13-2.84-6.08-5.06-7-4.41s.87,4.16,0,4.67S168.51,169,166,170c-.95.36-1.2,1.86-1.31,2.95"/><path class="cls-6" d="M73.68,175.32c3.13-2.85,6.08-5.1,7-4.41s-.87,4.11,0,4.66,6.3-6.63,8.78-5.57c1,.4,1.2,1.89,1.31,3"/><path class="cls-3" d="M598.88,257.48c0,8.16-2.62,12-5.14,14.06-4.66,3.65-10.93,2.3-13.84,7.29-.36.62-1.64,3.06-.66,4.7.55,1,1.86,1.6,5.58,1.57,5.1,0,8.38-1.32,19-5.14,3.64-1.28,4.26-1.53,5.14-2.44,2.69-2.92,2.07-7.29,1.34-13S609,255,606.64,254.06C603.36,253,599.46,256.9,598.88,257.48Z"/><path class="cls-3" d="M643.47,258.25c-1,8.08.91,12.27,3.1,14.57,4.08,4.41,10.49,3.64,12.64,9.25.29.66,1.24,3.24,0,4.74-.66.84-2,1.31-5.72.76-5.06-.76-8.12-2.51-18.21-7.76-3.36-1.78-4-2.15-4.74-3.17-2.26-3.27-1-7.61.51-13s2.62-9.33,5.21-9.87C639.65,253.18,643,257.55,643.47,258.25Z"/><path class="cls-3" d="M654.29,234.86a61.36,61.36,0,0,1,1.9,8.6c.65,4.15.47,5.5,1.09,5.72,1.86.58,10.31-10.28,10.16-21.54-.21-17.85-21.85-29.14-25.5-31A61.34,61.34,0,0,0,596.66,193c-8.16,2.52-16.91,10.39-34.43,26.12-2.51,2.3-6.59,6-5.72,9.58,1,4.19,8.45,5.54,9.55,5.72,10.56,1.9,19.63-5.57,22.33-8-.37,2.8-1,6.88-1.93,11.8-2.19,11.29-3.65,13.22-2.88,16.25,2,8.38,16.61,11.69,24.23,13.4,17.81,4,46.23,5,50.38-5.75,1.09-2.88,0-8.2-1.93-18.8C655.49,239.81,654.8,236.83,654.29,234.86Z"/><path class="cls-2" d="M599.14,205.42c-5.54,17.63-14.58,49.11-8.71,53.34a26.33,26.33,0,0,0,6.19,1.53c4.85,1,8.24,1.31,10.93,1.67,9.84,1.24,8.64,2.08,13.81,2.37a52.86,52.86,0,0,0,17.27-2.22,25.17,25.17,0,0,0,9.76-3.64c9.36-9.08-5.86-48.2-6.92-51l-6.78.4a56.19,56.19,0,0,1,.37,8.89,17,17,0,0,1-.91,6.41c-1.21,2.15-3.65,2.74-13.59,2.44-12.32-.32-14.17-1.31-15.19-3.17a31.86,31.86,0,0,1-1.24-8.63c-.29-3.35-.4-6.12-.48-8Z"/><path class="cls-3" d="M563.47,147.13c3.42-10.38,2.55-12.53,5.46-21.16a69,69,0,0,1,10.93-21.54c16.69-19.7,51.66-13.84,58.77-12.64,11.69,2,23.68,4,31.76,13.66,2,2.45,5.58,11.33,12.65,29.15a153.52,153.52,0,0,1,6.48,17.78c2.88,10.93,4.66,17.52,3.06,25.5a40.09,40.09,0,0,1-23.21,28c-5.2,2.18-9.18,2.4-18.79,2.73-32.46,1.09-48.89,1.6-58.77-.69-13.62-3.17-23.42-5.58-30-14.58a38.08,38.08,0,0,1-6.16-25.5C556.62,160.17,559.17,160,563.47,147.13Z"/><path class="cls-4" d="M653.16,239.85a304.4,304.4,0,0,1-32.78,2,309.35,309.35,0,0,1-32.5-1.42l1.6-7.58A255.38,255.38,0,0,0,620.74,235a250.34,250.34,0,0,0,31.08-1.71,15.68,15.68,0,0,0,.51,2.92C652.51,237.19,652.91,238.65,653.16,239.85Z"/><path class="cls-5" d="M598.84,177.11a26.49,26.49,0,0,1,51,0,42.65,42.65,0,0,1-9.77,9.19,138.48,138.48,0,0,1-13.66,6.88h0a61.43,61.43,0,0,1-15.33-6.59A63.3,63.3,0,0,1,598.84,177.11Z"/><path class="cls-2" d="M658.48,45.13h-1.27q2.5,26.62,5.06,53.29a93.21,93.21,0,0,1-37.78,8.13,93.06,93.06,0,0,1-38.25-8.16q2.63-27.15,5.17-54.25a13.29,13.29,0,1,1,5.94-19.56,13.26,13.26,0,0,1,24.34,7.28,13.3,13.3,0,0,1,25.06-6.19,13.26,13.26,0,1,1,11.73,19.46Z"/><path class="cls-5" d="M647.12,147.13a6.89,6.89,0,0,1,1.74-3.13,5.71,5.71,0,0,1,4.63-1.46,5.37,5.37,0,0,1,3.35,2.3,8.22,8.22,0,0,1,1.35,4.19,10.13,10.13,0,0,1,0,5.13,5.79,5.79,0,0,1-1.89,3,6,6,0,0,1-4.63.84,5.31,5.31,0,0,1-3.43-1.46,6.94,6.94,0,0,1-1.34-3.64,12.68,12.68,0,0,1-.22-2.95A11.67,11.67,0,0,1,647.12,147.13Z"/><circle class="cls-7" cx="652.54" cy="152.34" r="4.88"/><path class="cls-5" d="M590.61,145.82a7.29,7.29,0,0,1,1.75-3.17,5.59,5.59,0,0,1,4.63-1.46,5.46,5.46,0,0,1,3.35,2.34,8.65,8.65,0,0,1,1.35,4.18,10.52,10.52,0,0,1,0,5.11,5.14,5.14,0,0,1-6.53,3.86,5.36,5.36,0,0,1-3.42-1.46,6.68,6.68,0,0,1-1.35-3.64,11.71,11.71,0,0,1-.22-3A9.88,9.88,0,0,1,590.61,145.82Z"/><circle class="cls-7" cx="596" cy="151.03" r="5.03"/><path class="cls-5" d="M599.27,176.9a26.53,26.53,0,0,1,51,0,40.9,40.9,0,0,1-9.91,9.47,140,140,0,0,1-13.66,6.93h0a61.64,61.64,0,0,1-15.34-6.93A60.59,60.59,0,0,1,599.27,176.9Z"/><path class="cls-6" d="M574.28,173c3.14-2.84,6.09-5.1,7-4.4s-.88,4.11,0,4.66,6.3-6.63,8.78-5.57c.94.4,1.2,1.89,1.31,3"/><path class="cls-6" d="M682.41,173c-3.13-2.84-6.08-5.1-7-4.4s.87,4.11,0,4.66-6.31-6.63-8.78-5.57c-.95.4-1.21,1.89-1.32,3"/><path class="cls-3" d="M1637.24,256.26c-1,8.09.91,12.31,3.09,14.57,4.08,4.41,10.5,3.64,12.65,9.25.29.66,1.23,3.25,0,4.74-.66.84-2,1.31-5.72.73-5.07-.73-8.13-2.48-18.22-7.76-3.35-1.79-4-2.11-4.73-3.17-2.26-3.24-1-7.61.51-13s2.62-9.29,5.2-9.83C1633.41,251.23,1636.73,255.6,1637.24,256.26Z"/><path class="cls-3" d="M1592.65,259.49c0,8.16-2.63,12.06-5.14,14.1-4.66,3.65-10.93,2.3-13.84,7.29-.37.62-1.64,3.06-.66,4.7.55.91,1.86,1.57,5.57,1.57,5.1,0,8.38-1.35,19-5.14,3.65-1.31,4.27-1.53,5.14-2.48,2.7-2.91,2.08-7.29,1.35-12.93s-1.31-9.62-3.64-10.53C1597.13,255.05,1593.23,258.91,1592.65,259.49Z"/><path class="cls-3" d="M1648.06,234.91a26.4,26.4,0,0,0,5.54,5.06c2.76,1.82,4.33,2.88,6.12,2.59,2.87-.55,4.37-4.3,6-8.35a34,34,0,0,0,2.62-10.92c0-14.58-30.78-26-32.78-26.78a66.47,66.47,0,0,0-45.29-3.64c-8.16,2.51-16.9,10.41-34.43,26.15-2.51,2.26-6.59,6-5.72,9.55,1,4.22,8.46,5.54,9.55,5.75,10.56,1.9,19.64-5.61,22.33-8-.36,2.8-1,6.88-1.93,11.8-2.18,11.29-3.64,13.19-2.88,16.25,2,8.38,16.62,11.66,24.23,13.37,17.81,4,46.23,5.06,50.38-5.72,1.1-2.88,0-8.2-1.93-18.8C1649.26,239.82,1648.57,236.87,1648.06,234.91Z"/><path class="cls-2" d="M1592.9,205.32c-5.54,17.64-14.57,49.15-8.71,53.38a28.69,28.69,0,0,0,6.2,1.53c4.84.94,8.23,1.31,10.93,1.67,9.83,1.24,8.63,2,13.8,2.33a50.7,50.7,0,0,0,17.27-2.22,24.54,24.54,0,0,0,9.77-3.64c9.36-9.11-5.87-48.24-6.93-51l-6.77.44a54.57,54.57,0,0,1,.36,8.85,16.8,16.8,0,0,1-.73,6.38c-1.2,2.15-3.64,2.7-13.58,2.44-12.32-.36-14.18-1.35-15.2-3.2a32.5,32.5,0,0,1-1.24-8.6c-.29-3.35-.4-6.12-.47-8Z"/><path class="cls-3" d="M1557.24,147c3.42-10.42,2.55-12.57,5.46-21.2a68.28,68.28,0,0,1,10.93-21.5c16.68-19.71,51.66-13.84,58.76-12.64,11.7,2,23.68,4,31.77,13.66,2,2.41,5.57,11.33,12.64,29.15a157.45,157.45,0,0,1,6.49,17.74c2.87,10.93,4.66,17.52,3.06,25.5a40.11,40.11,0,0,1-23.21,28c-5.21,2.18-9.18,2.4-18.8,2.73-32.46,1.09-48.89,1.6-58.76-.69-13.63-3.17-23.43-5.61-30.06-14.58a38.13,38.13,0,0,1-6.15-25.5C1550.39,160.19,1552.94,160,1557.24,147Z"/><path class="cls-4" d="M1646.93,239.9a315.22,315.22,0,0,1-32.79,2,306.7,306.7,0,0,1-32.5-1.46l1.61-7.54a257.08,257.08,0,0,0,31.26,2.08,260.08,260.08,0,0,0,31.07-1.68,16.12,16.12,0,0,0,.51,2.88C1646.27,237.17,1646.67,238.7,1646.93,239.9Z"/><path class="cls-5" d="M1640.88,147.18a6.91,6.91,0,0,1,1.75-3.13,5.54,5.54,0,0,1,4.63-1.5,5.46,5.46,0,0,1,3.35,2.34,8.29,8.29,0,0,1,1.35,4.19,10.24,10.24,0,0,1,0,5.1,5.14,5.14,0,0,1-6.52,3.86,5.49,5.49,0,0,1-3.43-1.46,7,7,0,0,1-1.35-3.64,14,14,0,0,1-.22-2.95A11.6,11.6,0,0,1,1640.88,147.18Z"/><circle class="cls-7" cx="1645.4" cy="147.36" r="3.53"/><path class="cls-5" d="M1592.61,177.13a26.52,26.52,0,0,1,51,0,40.73,40.73,0,0,1-9.91,9.47,136.64,136.64,0,0,1-13.66,6.92h0a61.09,61.09,0,0,1-27.43-16.25Z"/><path class="cls-2" d="M1652.25,45.28H1651q2.52,26.67,5.07,53.3a92.5,92.5,0,0,1-76,0q2.63-27.1,5.18-54.21a13.3,13.3,0,1,1,5.94-19.57,13.26,13.26,0,0,1,24.33,7.29,13.3,13.3,0,0,1,25.07-6.19,13.26,13.26,0,1,1,11.73,19.49Z"/><path class="cls-6" d="M1675.75,173.23c-3.14-2.84-6.09-5.1-7-4.41s.88,4.12,0,4.66-6.3-6.59-8.78-5.57c-1,.4-1.2,1.89-1.31,3"/><path class="cls-5" d="M1640.88,147.18a6.91,6.91,0,0,1,1.75-3.13,5.54,5.54,0,0,1,4.63-1.5,5.46,5.46,0,0,1,3.35,2.34,8.29,8.29,0,0,1,1.35,4.19,10.24,10.24,0,0,1,0,5.1,5.14,5.14,0,0,1-6.52,3.86,5.49,5.49,0,0,1-3.43-1.46,7,7,0,0,1-1.35-3.64,14,14,0,0,1-.22-2.95A11.6,11.6,0,0,1,1640.88,147.18Z"/><circle class="cls-7" cx="1645.4" cy="147.36" r="3.53"/><path class="cls-5" d="M1592.61,177.13a26.52,26.52,0,0,1,51,0,40.73,40.73,0,0,1-9.91,9.47,136.64,136.64,0,0,1-13.66,6.92h0a61.09,61.09,0,0,1-27.43-16.25Z"/><path class="cls-6" d="M1675.75,173.23c-3.14-2.84-6.09-5.1-7-4.41s.88,4.12,0,4.66-6.3-6.59-8.78-5.57c-1,.4-1.2,1.89-1.31,3"/><rect class="cls-2" x="1629.01" y="193.96" width="97.31" height="10.97" transform="translate(881.15 1689.38) rotate(-68.65)"/><ellipse class="cls-3" cx="1670.53" cy="233.22" rx="10.38" ry="5.94" transform="translate(1107.98 1823.37) rotate(-78.47)"/><path class="cls-5" d="M1640.88,147.18a6.91,6.91,0,0,1,1.75-3.13,5.54,5.54,0,0,1,4.63-1.5,5.46,5.46,0,0,1,3.35,2.34,8.29,8.29,0,0,1,1.35,4.19,10.24,10.24,0,0,1,0,5.1,5.14,5.14,0,0,1-6.52,3.86,5.49,5.49,0,0,1-3.43-1.46,7,7,0,0,1-1.35-3.64,14,14,0,0,1-.22-2.95A11.6,11.6,0,0,1,1640.88,147.18Z"/><circle class="cls-7" cx="1646.31" cy="152.39" r="4.88"/><path class="cls-5" d="M1584.38,145.87a7,7,0,0,1,1.75-3.17,5.1,5.1,0,0,1,7.21-.11,5,5,0,0,1,.76.95,8.69,8.69,0,0,1,1.35,4.22,10.48,10.48,0,0,1,0,5.1,5.88,5.88,0,0,1-1.89,3,6.29,6.29,0,0,1-4.63.84,5.41,5.41,0,0,1-3.42-1.5,6.35,6.35,0,0,1-1.35-3.64,10.82,10.82,0,0,1-.22-3A9.66,9.66,0,0,1,1584.38,145.87Z"/><circle class="cls-7" cx="1589.77" cy="151.08" r="5.03"/><path class="cls-6" d="M1567.63,173.23c3.14-2.84,6.09-5.06,7-4.41s-.88,4.16,0,4.67,6.3-6.6,8.78-5.54c.94.36,1.2,1.86,1.31,3"/><path class="cls-1" d="M706.64,116.9a12,12,0,0,1-17,0,9.59,9.59,0,0,1,0-13.57,7.68,7.68,0,0,1,10.85,0,6.14,6.14,0,0,1,0,8.69,4.9,4.9,0,0,1-6.94,0,3.92,3.92,0,0,1,0-5.56,3.13,3.13,0,0,1,4.44,0,2.52,2.52,0,0,1,0,3.56,2,2,0,0,1-2.84,0,1.61,1.61,0,0,1,0-2.28"/><path class="cls-1" d="M558.14,93a12,12,0,0,1,.85,16.94,9.6,9.6,0,0,1-13.55.68,7.67,7.67,0,0,1-.54-10.84,6.14,6.14,0,0,1,8.67-.44,4.92,4.92,0,0,1,.35,6.94,3.93,3.93,0,0,1-5.55.28,3.15,3.15,0,0,1-.23-4.44,2.53,2.53,0,0,1,3.56-.18,2,2,0,0,1,.14,2.84,1.61,1.61,0,0,1-2.27.12"/><path class="cls-1" d="M1202.1,104.5a12,12,0,0,1-17,0,9.6,9.6,0,0,1,0-13.56,7.68,7.68,0,0,1,10.86,0,6.15,6.15,0,0,1,0,8.68,4.91,4.91,0,0,1-7,0,3.94,3.94,0,0,1,0-5.56,3.16,3.16,0,0,1,4.45,0,2.52,2.52,0,0,1,0,3.56,2,2,0,0,1-2.85,0,1.61,1.61,0,0,1,0-2.28"/><path class="cls-1" d="M1053.6,80.6a12,12,0,0,1,.85,16.94,9.58,9.58,0,0,1-13.54.68,7.67,7.67,0,0,1-.55-10.84A6.14,6.14,0,0,1,1049,87a4.9,4.9,0,0,1,.35,6.93,3.92,3.92,0,0,1-5.55.28,3.14,3.14,0,0,1-.22-4.44,2.51,2.51,0,0,1,3.55-.18,2,2,0,0,1,.14,2.85,1.61,1.61,0,0,1-2.27.11"/><path class="cls-1" d="M906.85,19.44a14.74,14.74,0,0,1-20.85,0,11.81,11.81,0,0,1,0-16.68,9.45,9.45,0,0,1,13.35,0,7.55,7.55,0,0,1,0,10.68,6,6,0,0,1-8.54,0,4.82,4.82,0,0,1,0-6.83,3.86,3.86,0,0,1,5.46,0,3.08,3.08,0,0,1,0,4.37,2.46,2.46,0,0,1-3.49,0,2,2,0,0,1,0-2.8"/><path class="cls-1" d="M969.92,98.72a20.92,20.92,0,0,1,0,29.57,16.72,16.72,0,0,1-23.66,0,13.37,13.37,0,0,1,0-18.92,10.69,10.69,0,0,1,15.14,0,8.57,8.57,0,0,1,0,12.11,6.84,6.84,0,0,1-9.69,0,5.48,5.48,0,0,1,0-7.75,4.37,4.37,0,0,1,6.2,0,3.51,3.51,0,0,1,0,5,2.8,2.8,0,0,1-4,0"/><path class="cls-1" d="M804.35,116.53A20.84,20.84,0,0,1,774.91,118a16.67,16.67,0,0,1-1.18-23.55,13.33,13.33,0,0,1,18.84-.95,10.67,10.67,0,0,1,.76,15.07,8.54,8.54,0,0,1-12.06.61,6.83,6.83,0,0,1-.49-9.65,5.47,5.47,0,0,1,7.72-.39,4.38,4.38,0,0,1,.31,6.18,3.51,3.51,0,0,1-4.94.25,2.81,2.81,0,0,1-.2-4"/><rect class="cls-2" x="910.79" y="242.41" width="10.97" height="19.31" transform="translate(90.13 721.73) rotate(-45)"/><path class="cls-3" d="M849,259.46c0,8.16-2.63,12.06-5.14,14.1-4.66,3.64-10.93,2.29-13.85,7.28-.36.62-1.63,3.06-.65,4.7.55.91,1.86,1.57,5.57,1.57,5.1,0,8.38-1.35,19-5.14,3.65-1.31,4.27-1.53,5.14-2.48,2.7-2.91,2.08-7.28,1.35-12.93s-1.31-9.62-3.64-10.53C853.5,255,849.6,258.87,849,259.46Z"/><path class="cls-3" d="M893.61,256.22c-1,8.09.91,12.32,3.09,14.58,4.08,4.44,10.5,3.86,12.65,9.25.29.65,1.23,3.28,0,4.77-.66.84-2.05,1.31-5.72.73-5.07-.77-8.13-2.48-18.22-7.76-3.35-1.79-4-2.11-4.74-3.17-2.25-3.24-1-7.61.51-13s2.63-9.32,5.21-9.83C889.78,251.16,893.1,255.57,893.61,256.22Z"/><path class="cls-3" d="M904.43,234.83a62.19,62.19,0,0,1,1.89,8.64c.66,4.11.47,5.5,1.09,5.68,1.86.62,10.31-10.24,10.17-21.53-.22-17.81-21.86-29.14-25.5-31A61.46,61.46,0,0,0,846.79,193c-8.16,2.52-16.9,10.39-34.42,26.16-2.52,2.26-6.6,6-5.72,9.55,1,4.22,8.45,5.53,9.54,5.75,10.57,1.86,19.64-5.61,22.33-8-.36,2.77-1,6.89-1.93,11.81-2.18,11.29-3.64,13.19-2.88,16.25,2,8.38,16.62,11.65,24.23,13.37,17.82,4,46.23,5.06,50.38-5.72,1.1-2.88,0-8.2-1.93-18.8C905.63,239.79,904.94,236.84,904.43,234.83Z"/><path class="cls-2" d="M849.27,205.29c-5.54,17.63-14.57,49.14-8.71,53.37a28.12,28.12,0,0,0,6.2,1.53c4.84.95,8.23,1.31,10.93,1.64,9.83,1.27,8.63,2.08,13.8,2.37A50.73,50.73,0,0,0,888.76,262a25.19,25.19,0,0,0,9.76-3.65c9.37-9.11-5.86-48.23-6.92-51l-6.77.44a55.63,55.63,0,0,1,.36,8.85,17,17,0,0,1-.73,6.37c-1.2,2.15-3.64,2.7-13.59,2.44-12.31-.36-14.17-1.34-15.19-3.2a32.5,32.5,0,0,1-1.24-8.6c-.29-3.35-.4-6.16-.47-8Z"/><path class="cls-3" d="M813.6,147c3.43-10.42,2.55-12.57,5.47-21.2A69.07,69.07,0,0,1,830,104.23c16.68-19.67,51.66-13.81,58.76-12.61,11.7,1.93,23.68,4,31.77,13.67,2,2.4,5.57,11.33,12.64,29.14a155.52,155.52,0,0,1,6.49,17.74c2.87,10.93,4.66,17.53,3.06,25.5a40.1,40.1,0,0,1-23.21,28c-5.21,2.22-9.18,2.41-18.8,2.73-32.46,1.13-48.89,1.64-58.76-.65-13.63-3.17-23.43-5.61-30.06-14.57a38,38,0,0,1-6.15-25.5C806.76,160.15,809.31,160,813.6,147Z"/><path class="cls-4" d="M903.3,239.86a309.81,309.81,0,0,1-32.79,2,317.72,317.72,0,0,1-32.5-1.46l1.61-7.54A257,257,0,0,0,870.87,235,260.25,260.25,0,0,0,902,233.3a16.12,16.12,0,0,0,.51,2.88C902.64,237.13,903,238.66,903.3,239.86Z"/><path class="cls-5" d="M897.25,147.14A7.4,7.4,0,0,1,899,144a5.69,5.69,0,0,1,4.63-1.45,5.45,5.45,0,0,1,3.35,2.33,8.24,8.24,0,0,1,1.34,4.19,10,10,0,0,1,0,5.1,5.81,5.81,0,0,1-1.89,3,5.91,5.91,0,0,1-4.63.84,5.43,5.43,0,0,1-3.42-1.46A6.87,6.87,0,0,1,897,152.9a13.25,13.25,0,0,1-.22-3A11.67,11.67,0,0,1,897.25,147.14Z"/><circle class="cls-7" cx="902.68" cy="152.32" r="4.88"/><path class="cls-5" d="M849,177.09a26.52,26.52,0,0,1,51,0,41.09,41.09,0,0,1-9.91,9.47,136.64,136.64,0,0,1-13.66,6.92h0a61.58,61.58,0,0,1-15.34-6.92A60.53,60.53,0,0,1,849,177.09Z"/><path class="cls-2" d="M908.62,45.25h-1.28q2.52,26.67,5.07,53.3a92.45,92.45,0,0,1-76,0q2.63-27.11,5.18-54.25a12.81,12.81,0,0,1-5.18,1.06A13.3,13.3,0,1,1,847.3,24.74,13.26,13.26,0,0,1,871.64,32a13.29,13.29,0,0,1,25.06-6.19,13.26,13.26,0,1,1,11.73,19.49Z"/><path class="cls-5" d="M840.75,145.83a7,7,0,0,1,1.74-3.17,5.1,5.1,0,0,1,7.22-.1,4.89,4.89,0,0,1,.76.94,8.69,8.69,0,0,1,1.35,4.19,10.64,10.64,0,0,1,0,5.14,5.83,5.83,0,0,1-1.89,3,6.19,6.19,0,0,1-4.63.87,5.4,5.4,0,0,1-3.43-1.49,6.44,6.44,0,0,1-1.34-3.65,10.82,10.82,0,0,1-.22-3A9.32,9.32,0,0,1,840.75,145.83Z"/><circle class="cls-7" cx="846.14" cy="151.04" r="5.03"/><path class="cls-6" d="M824,173.19c3.13-2.84,6.08-5.1,7-4.41s-.87,4.12,0,4.67,6.3-6.63,8.78-5.58c1,.4,1.2,1.9,1.31,3"/><path class="cls-6" d="M932.11,173.19c-3.13-2.84-6.08-5.1-7-4.41s.87,4.12,0,4.67-6.3-6.63-8.78-5.58c-1,.4-1.2,1.9-1.31,3"/><path class="cls-1" d="M1467.56,68.61a20.93,20.93,0,0,1,0,29.58,16.74,16.74,0,0,1-23.66,0,13.38,13.38,0,0,1,0-18.93,10.71,10.71,0,0,1,15.14,0,8.57,8.57,0,0,1,0,12.11,6.84,6.84,0,0,1-9.69,0,5.48,5.48,0,0,1,0-7.75,4.39,4.39,0,0,1,6.2,0,3.51,3.51,0,0,1,0,5,2.8,2.8,0,0,1-4,0"/><path class="cls-1" d="M1302,86.42a20.84,20.84,0,0,1-29.44,1.48,16.67,16.67,0,0,1-1.18-23.55,13.33,13.33,0,0,1,18.84-.95,10.68,10.68,0,0,1,.76,15.08,8.55,8.55,0,0,1-12.06.6,6.83,6.83,0,0,1-.49-9.65,5.47,5.47,0,0,1,7.72-.38,4.37,4.37,0,0,1,.31,6.17,3.51,3.51,0,0,1-4.94.25,2.81,2.81,0,0,1-.2-4"/><path class="cls-1" d="M1637,15.81a12,12,0,0,1-17,0,9.6,9.6,0,0,1,0-13.56,7.68,7.68,0,0,1,10.86,0,6.15,6.15,0,0,1,0,8.68,4.91,4.91,0,0,1-7,0,3.92,3.92,0,0,1,0-5.56,3.15,3.15,0,0,1,4.44,0,2.5,2.5,0,0,1,0,3.56,2,2,0,0,1-2.84,0,1.61,1.61,0,0,1,0-2.28"/><line class="cls-8" x1="1909.59" y1="113" x2="1903.52" y2="112.2"/><line class="cls-8" x1="1909.31" y1="112.96" x2="1910.11" y2="106.89"/><line class="cls-8" x1="1912.94" y1="113.44" x2="1913.74" y2="107.37"/><line class="cls-8" x1="1912.98" y1="113.16" x2="1919.05" y2="113.96"/><line class="cls-8" x1="1912.47" y1="117.02" x2="1918.54" y2="117.82"/><line class="cls-8" x1="1912.75" y1="117.06" x2="1911.95" y2="123.13"/><line class="cls-8" x1="1909.12" y1="116.58" x2="1908.32" y2="122.65"/><line class="cls-8" x1="1909.08" y1="116.86" x2="1903.01" y2="116.06"/><line class="cls-9" x1="1843.05" y1="130.54" x2="1855.88" y2="139.43"/><line class="cls-9" x1="1907.89" y1="130.69" x2="1895.05" y2="139.59"/><line class="cls-8" x1="1652.69" y1="112.9" x2="1646.62" y2="112.1"/><line class="cls-8" x1="1652.41" y1="112.86" x2="1653.21" y2="106.79"/><line class="cls-8" x1="1656.04" y1="113.34" x2="1656.84" y2="107.27"/><line class="cls-8" x1="1656.08" y1="113.06" x2="1662.15" y2="113.86"/><line class="cls-8" x1="1655.57" y1="116.92" x2="1661.64" y2="117.72"/><line class="cls-8" x1="1655.85" y1="116.96" x2="1655.05" y2="123.03"/><line class="cls-8" x1="1652.21" y1="116.48" x2="1651.42" y2="122.55"/><line class="cls-8" x1="1652.18" y1="116.76" x2="1646.11" y2="115.96"/><line class="cls-9" x1="1586.15" y1="130.44" x2="1598.98" y2="139.34"/><line class="cls-9" x1="1650.98" y1="130.6" x2="1638.15" y2="139.49"/><line class="cls-8" x1="1409.02" y1="112.82" x2="1402.95" y2="112.03"/><line class="cls-8" x1="1408.75" y1="112.79" x2="1409.54" y2="106.72"/><line class="cls-8" x1="1412.38" y1="113.27" x2="1413.18" y2="107.2"/><line class="cls-8" x1="1412.41" y1="112.99" x2="1418.48" y2="113.79"/><line class="cls-8" x1="1411.91" y1="116.85" x2="1417.98" y2="117.64"/><line class="cls-8" x1="1412.19" y1="116.88" x2="1411.39" y2="122.95"/><line class="cls-8" x1="1408.55" y1="116.4" x2="1407.75" y2="122.47"/><line class="cls-8" x1="1408.52" y1="116.68" x2="1402.45" y2="115.88"/><line class="cls-9" x1="1342.48" y1="130.37" x2="1355.32" y2="139.26"/><line class="cls-9" x1="1407.32" y1="130.52" x2="1394.49" y2="139.41"/><line class="cls-8" x1="1159.18" y1="112.76" x2="1153.11" y2="111.96"/><line class="cls-8" x1="1158.9" y1="112.72" x2="1159.7" y2="106.65"/><line class="cls-8" x1="1162.54" y1="113.2" x2="1163.34" y2="107.13"/><line class="cls-8" x1="1162.57" y1="112.92" x2="1168.64" y2="113.72"/><line class="cls-8" x1="1162.07" y1="116.78" x2="1168.14" y2="117.58"/><line class="cls-8" x1="1162.34" y1="116.81" x2="1161.55" y2="122.88"/><line class="cls-8" x1="1158.71" y1="116.34" x2="1157.91" y2="122.41"/><line class="cls-8" x1="1158.67" y1="116.61" x2="1152.61" y2="115.82"/><line class="cls-9" x1="1092.64" y1="130.3" x2="1105.48" y2="139.19"/><line class="cls-9" x1="1157.48" y1="130.45" x2="1144.65" y2="139.34"/><line class="cls-8" x1="908.67" y1="112.86" x2="902.6" y2="112.07"/><line class="cls-8" x1="908.39" y1="112.83" x2="909.19" y2="106.76"/><line class="cls-8" x1="912.03" y1="113.31" x2="912.83" y2="107.24"/><line class="cls-8" x1="912.06" y1="113.03" x2="918.13" y2="113.83"/><line class="cls-8" x1="911.56" y1="116.88" x2="917.63" y2="117.68"/><line class="cls-8" x1="911.83" y1="116.92" x2="911.04" y2="122.99"/><line class="cls-8" x1="908.2" y1="116.44" x2="907.4" y2="122.51"/><line class="cls-8" x1="908.16" y1="116.72" x2="902.1" y2="115.92"/><line class="cls-9" x1="842.13" y1="130.41" x2="854.97" y2="139.3"/><line class="cls-9" x1="906.97" y1="130.56" x2="894.14" y2="139.45"/><line class="cls-8" x1="658.54" y1="112.71" x2="652.47" y2="111.91"/><line class="cls-8" x1="658.26" y1="112.67" x2="659.06" y2="106.6"/><line class="cls-8" x1="661.89" y1="113.15" x2="662.69" y2="107.08"/><line class="cls-8" x1="661.93" y1="112.87" x2="668" y2="113.67"/><line class="cls-8" x1="661.42" y1="116.73" x2="667.49" y2="117.53"/><line class="cls-8" x1="661.7" y1="116.76" x2="660.9" y2="122.83"/><line class="cls-8" x1="658.07" y1="116.29" x2="657.27" y2="122.35"/><line class="cls-8" x1="658.03" y1="116.56" x2="651.96" y2="115.76"/><line class="cls-9" x1="592" y1="130.25" x2="604.83" y2="139.14"/><line class="cls-9" x1="656.84" y1="130.4" x2="644" y2="139.29"/><line class="cls-8" x1="409.06" y1="113.09" x2="405.4" y2="112.61"/><line class="cls-8" x1="408.89" y1="113.07" x2="409.37" y2="109.41"/><line class="cls-8" x1="411.08" y1="113.35" x2="411.56" y2="109.69"/><line class="cls-8" x1="411.1" y1="113.19" x2="414.76" y2="113.67"/><line class="cls-8" x1="410.8" y1="115.51" x2="414.45" y2="115.99"/><line class="cls-8" x1="410.96" y1="115.53" x2="410.48" y2="119.19"/><line class="cls-8" x1="408.77" y1="115.24" x2="408.29" y2="118.9"/><line class="cls-8" x1="408.75" y1="115.41" x2="405.09" y2="114.93"/><path class="cls-5" d="M1401.73,157.9c-2.85-.87-3.85-2.1-4.22-3.08s-.3-2.46-.06-5.22c.09-1.15.26-2.48-.56-3.44a2.61,2.61,0,0,0-.71-.59,2.68,2.68,0,0,1,1.72.46,2.9,2.9,0,0,1,1.17,2.2,7.64,7.64,0,0,1,5.94-8.14,5.15,5.15,0,0,0-1.69,2.11,4.51,4.51,0,0,0,.06,3.86c.32.5,1,1.22,1.46,1.07.19-.06.43-.26.68-1.66a15.15,15.15,0,0,0,.26-3.05,5,5,0,0,1,1.53,3.57c-.07,1.14-.71,2-.26,3.31.08.24.3.83.71.91s1.11-.48,1.53-1.49a6.92,6.92,0,0,1,.32,3.5,7.13,7.13,0,0,1-2.82,4.48,4.84,4.84,0,0,1-2.5,1.1c0-.1,1.34-.56,1.82-1.68s-.11-2.4-.76-3.44a1.36,1.36,0,0,1,.05,1.26c-.2.31-.6.54-.78.43s-.06-.61,0-1.08a6.87,6.87,0,0,0-.1-3.5,3.07,3.07,0,0,0-2.11-1.53,2.52,2.52,0,0,1,.81,1.56c.09,1-.5,1.94-.78,1.88s-.28-1.25-.25-2a4.07,4.07,0,0,0-1.08,2.27c-.05.56.28,1,0,1.53-.15.28-.5.63-.84.55a.94.94,0,0,1-.52-1.07,4.15,4.15,0,0,0,2,5Z"/><rect class="cls-5" x="1341.77" y="145.4" width="9.41" height="11.35" rx="4.71"/><rect class="cls-5" x="1398.94" y="148.74" width="7.72" height="9.31" rx="3.86"/><path class="cls-5" d="M1345.26,156.34c-2.85-.88-3.84-2.11-4.22-3.08s-.29-2.46-.06-5.23c.1-1.14.27-2.47-.55-3.44a2.75,2.75,0,0,0-.72-.58,2.7,2.7,0,0,1,1.72.45,2.89,2.89,0,0,1,1.17,2.21,7.64,7.64,0,0,1,5.94-8.14,5.08,5.08,0,0,0-1.69,2.11,4.49,4.49,0,0,0,.07,3.86c.31.5,1,1.21,1.46,1.07.18-.06.42-.26.68-1.66a15.92,15.92,0,0,0,.26-3,4.92,4.92,0,0,1,1.52,3.57c-.07,1.14-.71,2-.26,3.31.09.24.3.83.72.91s1.1-.48,1.52-1.49a6.89,6.89,0,0,1,.33,3.5,7.18,7.18,0,0,1-2.83,4.48,4.82,4.82,0,0,1-2.49,1.1c-.06-.1,1.34-.56,1.81-1.68s-.11-2.4-.76-3.44a1.33,1.33,0,0,1,0,1.26c-.2.3-.6.54-.78.42s-.06-.6,0-1.07a6.87,6.87,0,0,0-.1-3.5,3,3,0,0,0-2.1-1.53,2.54,2.54,0,0,1,.81,1.56c.08,1-.51,1.94-.78,1.88s-.29-1.25-.26-2a4,4,0,0,0-1.07,2.27c-.06.56.27,1,0,1.53-.16.28-.51.63-.85.55a1,1,0,0,1-.52-1.07,4.16,4.16,0,0,0,2,5Z"/><rect class="cls-5" x="1342.47" y="147.18" width="7.72" height="9.31" rx="3.86"/><path class="cls-5" d="M1588.29,156.72c-3.48-1.07-4.69-2.57-5.14-3.76s-.37-3-.08-6.37c.12-1.4.33-3-.67-4.19a3.13,3.13,0,0,0-.88-.71,3.26,3.26,0,0,1,2.1.55,3.5,3.5,0,0,1,1.42,2.69,9.31,9.31,0,0,1,7.24-9.93,6.26,6.26,0,0,0-2,2.57c-.13.31-1.14,2.77.07,4.71.39.62,1.19,1.48,1.78,1.3.23-.06.52-.31.84-2a19.87,19.87,0,0,0,.31-3.72c1.66,1.9,1.92,3.36,1.86,4.35-.09,1.39-.87,2.49-.32,4,.11.29.36,1,.87,1.11s1.35-.59,1.86-1.82a8.44,8.44,0,0,1,.4,4.27,8.71,8.71,0,0,1-3.44,5.46,5.92,5.92,0,0,1-3,1.35c-.07-.13,1.64-.69,2.22-2.06s-.14-2.93-.93-4.19a1.66,1.66,0,0,1,.06,1.54c-.24.37-.73.65-1,.51s-.07-.74,0-1.3.53-2.88-.12-4.27a3.73,3.73,0,0,0-2.57-1.86,3.07,3.07,0,0,1,1,1.9c.1,1.18-.62,2.36-1,2.29s-.35-1.53-.32-2.49a4.93,4.93,0,0,0-1.3,2.77c-.07.68.33,1.24,0,1.86-.19.34-.62.76-1,.67a1.15,1.15,0,0,1-.64-1.31,5.08,5.08,0,0,0,2.38,6.06Z"/><path class="cls-5" d="M1644.83,158.06c-3.48-1.07-4.69-2.57-5.14-3.76s-.37-3-.08-6.37c.12-1.4.33-3-.67-4.19a3.26,3.26,0,0,0-.87-.71,3.37,3.37,0,0,1,2.09.55,3.56,3.56,0,0,1,1.43,2.69,9.32,9.32,0,0,1,7.23-9.92,6.27,6.27,0,0,0-2,2.57c-.13.3-1.14,2.76.08,4.7.38.62,1.18,1.49,1.78,1.31.22-.07.51-.32.83-2a19,19,0,0,0,.31-3.72c1.66,1.9,1.92,3.37,1.86,4.35-.09,1.39-.87,2.49-.32,4,.11.29.36,1,.87,1.11s1.35-.59,1.86-1.82a8.43,8.43,0,0,1,.4,4.27,8.74,8.74,0,0,1-3.44,5.46,6,6,0,0,1-3,1.34c-.07-.13,1.64-.69,2.22-2.06s-.14-2.92-.93-4.18a1.64,1.64,0,0,1,.06,1.53c-.24.37-.73.66-1,.52s-.07-.74,0-1.31.53-2.87-.12-4.27a3.76,3.76,0,0,0-2.57-1.86,3,3,0,0,1,1,1.9c.1,1.18-.62,2.36-1,2.3s-.35-1.53-.32-2.5a4.93,4.93,0,0,0-1.3,2.77c-.07.69.33,1.25,0,1.86-.19.34-.62.77-1,.67a1.12,1.12,0,0,1-.63-1.3,5.06,5.06,0,0,0,0,3.2A5.22,5.22,0,0,0,1644.83,158.06Z"/><rect class="cls-5" x="1585.14" y="145.58" width="9.41" height="11.35" rx="4.71"/><rect class="cls-5" x="1641.43" y="146.89" width="9.41" height="11.35" rx="4.71"/></svg>