<svg id="Layer_1" data-name="Layer 1" xmlns="http://www.w3.org/2000/svg" viewBox="0 0 244.81 243.61"><defs><style>.cls-1{fill:#495057;}</style></defs><title>stir</title><path class="cls-1" d="M152.35,178l-1,1.56-40.86,64H107l41.52-64.78h0l1.1-1.7Z"/><path class="cls-1" d="M155.74,180q-17.25,31.8-34.51,63.6h-4q17.31-32,34.63-63.94l.4-.74,3.09,1h0Z"/><path class="cls-1" d="M140.75,166.17l-1.67,1.64h0l-3,3h0L62.11,243.61h-5l76.74-75.69,2.61-2.58h0l1.24-1.22C138.72,164.8,139.73,165.49,140.75,166.17Z"/><path class="cls-1" d="M149.07,176.91l-1.24,1.7h0l-46.86,65H97.59L145,177.49l1.66-2.3Z"/><path class="cls-1" d="M146.93,172.57l-3.48,4.14-.55.65Q115,210.48,87.1,243.61H82.71l57.46-68,.55-.65,3.24-3.84C145,171.63,146,172.11,146.93,172.57Z"/><path class="cls-1" d="M135.9,161.67c-.45.33-.87.66-1.32,1h0c-.87.64-1.73,1.29-2.59,1.94h0q-44.82,33.48-89.62,67l-5.78,4.32-10.28,7.68H21.66l12.09-9,6.37-4.74Q85.56,196,131,162.2l2.48-1.84,1.35-1Z"/><path class="cls-1" d="M141.72,169.55l-3.29,3.63,0,0q-32,35.22-63.94,70.41H71q32.83-36,65.69-72.08l3-3.27.6-.65,1.41,1.9Z"/><path class="cls-1" d="M134.21,159.47l-.89.58h0l-2.53,1.66L33.77,225l-9.2,6L5.32,243.61H0L20.87,230l10.35-6.77,98.68-64.52h0l2.51-1.64a0,0,0,0,0,0,0l.48-.31Z"/><path class="cls-1" d="M138,163.86c-.54.45-1.08.88-1.62,1.34h0l-2.78,2.29L49.25,237.16l-4.18,3.45-3.63,3H37.58l5.23-4.34,4.47-3.72q42.48-35.22,84.93-70.46l2.55-2.11,1.22-1Z"/><path class="cls-1" d="M155.12,180.09a28.22,28.22,0,0,1-18.05-8.19,27.65,27.65,0,0,1-7.24-13.62L260.68,1q22.8,18.78,45.59,37.57Z"/><path class="cls-1" d="M132.18,155.46a18.55,18.55,0,0,0,5.69,11.34,18.27,18.27,0,0,0,10.22,4.69L286.72,33.28a35.86,35.86,0,0,1-18.58-12.39A36,36,0,0,1,260.68,1Z"/></svg>