<svg id="Layer_1" data-name="Layer 1" xmlns="http://www.w3.org/2000/svg" viewBox="0 0 2000 320"><defs><style>.cls-1,.cls-3{fill:#c3e6ea;}.cls-2,.cls-4{fill:#495057;}.cls-2,.cls-5{stroke:#c3e6ea;}.cls-2,.cls-3,.cls-5{stroke-miterlimit:10;stroke-width:0.5px;}.cls-3{stroke:#495057;}.cls-5{fill:none;}</style></defs><title>walk-chicken</title><path class="cls-1" d="M192.83,150.47c-.55,1.82-3.63,2.36-4.6,2.54-5.68,1.08-18.25,4.93-36.71,11.07l-14.13-26.62L161.63,124c4.56,3.15,21.83,15.15,28.48,21.5C191.37,146.69,193.36,148.75,192.83,150.47Z"/><ellipse class="cls-2" cx="82.34" cy="221.24" rx="36.99" ry="7.91" transform="translate(-146.96 165.12) rotate(-55.83)"/><path class="cls-2" d="M108,265.15c7.83,9.36,10.56,17.4,11.52,23.28s.06,9,3.37,11.34c7.84,5.56,30-.14,30.21-4.45.14-2.67-8-6.29-15.27-6-3.28.15-3.57,1-5.19.69-8.52-1.53-3.63-25.23-13.43-28C117.4,261.52,114.06,261.48,108,265.15Z"/><ellipse class="cls-2" cx="110.1" cy="231.98" rx="34.09" ry="55.01"/><path class="cls-2" d="M86.66,258.42c-5.47-.86-4.37,11-13.76,20.57-4.74,4.83-7.43,4.26-7.78,8.05-.61,6.8,10.88,26.75,18.1,24.56,3.75-1.15,6.41-8.36,4.41-12.31-1.72-3.42-6.81-4.15-7.65-8.73a7.12,7.12,0,0,1-.08-1.83c.53-8.45,15.14-14.23,14.68-21.85C94.35,263.05,90.28,259,86.66,258.42Z"/><rect class="cls-3" x="119.06" y="188.43" width="4.71" height="22.38" transform="translate(-49.94 40.79) rotate(-15.86)"/><circle class="cls-2" cx="110.1" cy="135.17" r="55.01"/><path class="cls-3" d="M144.78,43.21h-1.23q2.41,25.92,4.86,51.86a88.48,88.48,0,0,1-36.25,7.87,87.47,87.47,0,0,1-36.7-8q2.51-26.37,5-52.78A12.69,12.69,0,0,1,63.7,35.29a13,13,0,0,1,6.8-16.95,12.67,12.67,0,0,1,15.62,4.81,12.61,12.61,0,0,1,17.62-3.68,13,13,0,0,1,5.73,10.77,12.73,12.73,0,0,1,24.05-5.78,12.63,12.63,0,0,1,17.19-5.38A13,13,0,0,1,156,36.51a12.69,12.69,0,0,1-11.24,6.88Z"/><path class="cls-3" d="M121.14,207.25a19.59,19.59,0,0,1,5.11.88c4.07,1.26,5.38,3.11,8.32,3.5a10,10,0,0,0,6.66-1.75,79.58,79.58,0,0,1,4.55,30.54,78.43,78.43,0,0,1-7.18,29.51,11.56,11.56,0,0,1-15.4-.17Z"/><rect class="cls-3" x="76.03" y="230.2" width="69.84" height="7.4"/><ellipse class="cls-2" cx="119.12" cy="227.49" rx="7.91" ry="36.99" transform="matrix(0.81, -0.59, 0.59, 0.81, -111.11, 113.77)"/><path class="cls-1" d="M134.24,122.91a9.49,9.49,0,0,1,2.36-4.2,6.62,6.62,0,0,1,10.52,1.17,11.23,11.23,0,0,1,1.78,5.63,13.86,13.86,0,0,1,0,6.89,7.11,7.11,0,0,1-8.78,5,7.21,7.21,0,0,1-4.53-2,9.36,9.36,0,0,1-1.78-4.89,17.49,17.49,0,0,1-.29-4A15.8,15.8,0,0,1,134.24,122.91Z"/><ellipse class="cls-4" cx="141.43" cy="129.91" rx="6.46" ry="6.55"/><path class="cls-5" d="M152.73,151.31c-2.62-2.37-5.08-4.22-5.84-3.68s.73,3.47,0,3.89-5.25-5.5-7.32-4.62c-.79.31-1,1.55-1.09,2.46"/><path class="cls-1" d="M442.36,151c-.55,1.81-3.61,2.35-4.58,2.53-5.66,1.07-18.17,4.91-36.55,11q-7-13.25-14.06-26.51,12.06-6.7,24.13-13.4c4.54,3.13,21.73,15.08,28.35,21.4C440.91,147.25,442.88,149.29,442.36,151Z"/><ellipse class="cls-2" cx="398.24" cy="208.29" rx="7.88" ry="36.83" transform="translate(2.25 420.83) rotate(-55.83)"/><path class="cls-2" d="M336.8,254.21c-1.07,12.1-4.81,19.68-8.28,24.5s-6.3,6.37-5.62,10.35c1.61,9.43,21.21,21,24.41,18.13,2-1.77-1.21-10.07-6.54-14.94-2.42-2.21-3.21-1.83-4.14-3.17-4.93-7.08,15.2-20.32,10.25-29.17C345.94,258.24,343.62,255.86,336.8,254.21Z"/><ellipse class="cls-2" cx="359.99" cy="232.16" rx="33.94" ry="54.77"/><path class="cls-2" d="M344.1,269.19c-3,4.61,8.17,8.5,13,21,2.42,6.29.8,8.49,4.09,10.36,5.9,3.37,28.73,1.17,29.71-6.28.51-3.87-4.93-9.25-9.33-9.07-3.81.16-6.57,4.47-11.07,3.34a7.26,7.26,0,0,1-1.69-.68c-7.44-4-6.66-19.59-13.75-22.32C351.47,264.14,346.1,266.15,344.1,269.19Z"/><rect class="cls-3" x="368.92" y="188.8" width="4.69" height="22.28" transform="translate(-40.51 109.1) rotate(-15.86)"/><circle class="cls-2" cx="359.99" cy="135.78" r="54.77"/><path class="cls-3" d="M394.52,44.22H393.3q2.4,25.8,4.84,51.63a87.91,87.91,0,0,1-36.1,7.83,86.9,86.9,0,0,1-36.54-7.94q2.5-26.25,4.94-52.54a12.65,12.65,0,0,1-16.64-6.86,13,13,0,0,1,6.77-16.88,12.6,12.6,0,0,1,15.54,4.79,12.56,12.56,0,0,1,17.55-3.67,12.9,12.9,0,0,1,5.7,10.73,12.68,12.68,0,0,1,23.95-5.76,12.59,12.59,0,0,1,17.12-5.36,12.93,12.93,0,0,1,5.28,17.36,12.64,12.64,0,0,1-11.19,6.85Z"/><path class="cls-3" d="M371,207.54a19.86,19.86,0,0,1,5.1.87c4,1.26,5.34,3.1,8.28,3.49a9.92,9.92,0,0,0,6.63-1.74,79.4,79.4,0,0,1,4.53,30.4,77.84,77.84,0,0,1-7.16,29.38,11.86,11.86,0,0,1-7,2.83,12,12,0,0,1-8.29-3Z"/><rect class="cls-3" x="326.07" y="230.39" width="69.54" height="7.36"/><ellipse class="cls-2" cx="332.08" cy="225.05" rx="36.83" ry="7.88" transform="translate(-56.98 322.83) rotate(-48.23)"/><path class="cls-1" d="M384,123.57a9.35,9.35,0,0,1,2.35-4.18,6.59,6.59,0,0,1,10.47,1.17,11.11,11.11,0,0,1,1.77,5.59,13.78,13.78,0,0,1,0,6.87,7.07,7.07,0,0,1-8.73,5,7.12,7.12,0,0,1-4.52-1.95,9.24,9.24,0,0,1-1.77-4.86,17.45,17.45,0,0,1-.29-4A15.63,15.63,0,0,1,384,123.57Z"/><ellipse class="cls-4" cx="391.18" cy="130.54" rx="6.43" ry="6.52"/><path class="cls-5" d="M402.43,151.84c-2.6-2.36-5.05-4.2-5.8-3.66s.72,3.45,0,3.87-5.24-5.47-7.29-4.59c-.79.3-1,1.54-1.09,2.45"/><path class="cls-1" d="M693.1,151c-.56,1.81-3.63,2.35-4.6,2.54-5.68,1.08-18.25,4.93-36.71,11.07l-14.13-26.63,24.24-13.46c4.56,3.15,21.82,15.15,28.48,21.49C691.64,147.18,693.62,149.23,693.1,151Z"/><ellipse class="cls-2" cx="627.61" cy="220.4" rx="7.91" ry="36.99" transform="translate(55.37 559.54) rotate(-50)"/><path class="cls-2" d="M600.3,254.61c-1.07,12.15-4.82,19.77-8.31,24.6s-6.32,6.41-5.64,10.41c1.62,9.47,21.3,21.09,24.52,18.21,2-1.79-1.23-10.12-6.58-15-2.42-2.21-3.22-1.83-4.15-3.18-4.95-7.11,15.27-20.41,10.29-29.29C609.49,258.66,607.16,256.26,600.3,254.61Z"/><ellipse class="cls-2" cx="610.36" cy="232.47" rx="34.09" ry="55.01"/><path class="cls-2" d="M591.08,271c-2.65,4.86,8.9,7.81,14.75,19.88,3,6.09,1.52,8.43,5,10,6.19,2.86,28.85-1.26,29.21-8.8.18-3.92-5.72-8.84-10.11-8.29-3.8.48-6.2,5-10.79,4.28a7,7,0,0,1-1.75-.54c-7.79-3.34-8.32-19.05-15.65-21.17C598,265.33,592.83,267.79,591.08,271Z"/><rect class="cls-3" x="619.33" y="188.92" width="4.71" height="22.38" transform="translate(-31.02 177.56) rotate(-15.86)"/><circle class="cls-2" cx="610.36" cy="135.66" r="55.01"/><path class="cls-3" d="M645,43.7h-1.22q2.41,25.9,4.86,51.85a88.15,88.15,0,0,1-36.25,7.87,87.7,87.7,0,0,1-36.71-8q2.52-26.37,5-52.78A12.7,12.7,0,0,1,564,35.78a13,13,0,0,1,6.8-17,12.66,12.66,0,0,1,15.61,4.81A12.62,12.62,0,0,1,604,20a13,13,0,0,1,5.73,10.77,12.72,12.72,0,0,1,24-5.78A12.63,12.63,0,0,1,651,19.57,13,13,0,0,1,656.29,37,12.72,12.72,0,0,1,645,43.88Z"/><path class="cls-3" d="M621.41,207.74a19.48,19.48,0,0,1,5.11.87c4.06,1.27,5.37,3.12,8.32,3.5a9.9,9.9,0,0,0,6.66-1.75,79.65,79.65,0,0,1,4.55,30.54,78.14,78.14,0,0,1-7.19,29.51,12,12,0,0,1-7.07,2.85,12.14,12.14,0,0,1-8.32-3Z"/><rect class="cls-3" x="576.29" y="230.69" width="69.84" height="7.4"/><ellipse class="cls-2" cx="596.89" cy="237.24" rx="36.99" ry="7.91" transform="translate(269.93 790.1) rotate(-81.08)"/><path class="cls-1" d="M634.51,123.4a9.29,9.29,0,0,1,2.36-4.2,6.61,6.61,0,0,1,10.51,1.17,11.24,11.24,0,0,1,1.79,5.62,14.13,14.13,0,0,1,0,6.9,7.09,7.09,0,0,1-8.78,5,7.15,7.15,0,0,1-4.53-1.95,9.39,9.39,0,0,1-1.78-4.89,17,17,0,0,1-.29-4A15.6,15.6,0,0,1,634.51,123.4Z"/><ellipse class="cls-4" cx="641.69" cy="130.39" rx="6.46" ry="6.55"/><path class="cls-5" d="M653,151.79c-2.61-2.37-5.07-4.22-5.83-3.67s.73,3.46,0,3.89-5.25-5.5-7.32-4.62c-.79.3-1,1.55-1.09,2.46"/><path class="cls-1" d="M943.23,150.47c-.55,1.82-3.62,2.36-4.6,2.54-5.68,1.08-18.25,4.93-36.71,11.07l-14.13-26.62L912,124c4.56,3.15,21.83,15.15,28.48,21.5C941.77,146.69,943.76,148.75,943.23,150.47Z"/><ellipse class="cls-2" cx="832.74" cy="221.24" rx="36.99" ry="7.91" transform="translate(182.02 786.01) rotate(-55.83)"/><path class="cls-2" d="M858.44,265.15c7.84,9.36,10.57,17.4,11.52,23.28s.06,9,3.37,11.35c7.84,5.55,30-.15,30.21-4.46.15-2.67-8-6.29-15.26-6-3.29.15-3.58,1-5.19.69-8.53-1.53-3.64-25.23-13.44-28C867.8,261.52,864.46,261.48,858.44,265.15Z"/><ellipse class="cls-2" cx="860.5" cy="231.98" rx="34.09" ry="55.02"/><path class="cls-2" d="M837.06,258.42c-5.47-.86-4.36,11-13.76,20.57-4.74,4.83-7.43,4.26-7.78,8.05-.61,6.8,10.88,26.76,18.1,24.56,3.75-1.15,6.41-8.36,4.42-12.31-1.73-3.42-6.82-4.15-7.66-8.73a7.12,7.12,0,0,1-.08-1.83c.53-8.45,15.14-14.23,14.68-21.85C844.75,263.06,840.68,259,837.06,258.42Z"/><rect class="cls-3" x="869.47" y="188.43" width="4.71" height="22.38" transform="translate(-21.36 245.91) rotate(-15.86)"/><circle class="cls-2" cx="860.5" cy="135.17" r="55.02"/><path class="cls-3" d="M895.18,43.21H894q2.41,25.92,4.86,51.86a88.48,88.48,0,0,1-36.25,7.87,87.47,87.47,0,0,1-36.7-8q2.5-26.37,5-52.78a12.69,12.69,0,0,1-16.72-6.89,13,13,0,0,1,6.8-16.95,12.67,12.67,0,0,1,15.62,4.81,12.61,12.61,0,0,1,17.62-3.68,12.93,12.93,0,0,1,5.73,10.77,12.73,12.73,0,0,1,24-5.78,12.63,12.63,0,0,1,17.19-5.38,13,13,0,0,1,5.31,17.43,12.69,12.69,0,0,1-11.24,6.88Z"/><path class="cls-3" d="M871.54,207.25a19.59,19.59,0,0,1,5.11.88c4.07,1.26,5.38,3.11,8.32,3.5a10,10,0,0,0,6.66-1.75,79.54,79.54,0,0,1,4.56,30.54A78.58,78.58,0,0,1,889,269.93a11.55,11.55,0,0,1-15.39-.17Z"/><rect class="cls-3" x="826.43" y="230.2" width="69.84" height="7.4"/><ellipse class="cls-2" cx="869.53" cy="227.49" rx="7.91" ry="36.99" transform="translate(32.78 555.64) rotate(-36.08)"/><path class="cls-1" d="M884.64,122.91a9.42,9.42,0,0,1,2.37-4.2,6.61,6.61,0,0,1,10.51,1.17,11.23,11.23,0,0,1,1.78,5.63,13.86,13.86,0,0,1,0,6.89,7.09,7.09,0,0,1-8.77,5,7.18,7.18,0,0,1-4.54-2,9.36,9.36,0,0,1-1.78-4.89,18.09,18.09,0,0,1-.29-4A15.8,15.8,0,0,1,884.64,122.91Z"/><ellipse class="cls-4" cx="891.83" cy="129.91" rx="6.46" ry="6.55"/><path class="cls-5" d="M903.13,151.31c-2.61-2.37-5.08-4.22-5.83-3.68s.72,3.46,0,3.89S892,146,890,146.9c-.79.31-1,1.55-1.1,2.46"/><path class="cls-1" d="M1192.76,151.08c-.54,1.8-3.58,2.34-4.55,2.52-5.62,1.07-18.06,4.88-36.32,11l-14-26.34,24-13.32c4.52,3.11,21.6,15,28.18,21.27C1191.32,147.35,1193.28,149.38,1192.76,151.08Z"/><ellipse class="cls-2" cx="1148.92" cy="208.01" rx="7.83" ry="36.6" transform="translate(331.59 1041.82) rotate(-55.83)"/><path class="cls-2" d="M1087.86,253.64c-1.06,12-4.78,19.56-8.23,24.34s-6.25,6.34-5.58,10.29c1.6,9.37,21.08,20.87,24.26,18,2-1.76-1.21-10-6.51-14.85-2.4-2.2-3.18-1.82-4.11-3.15-4.89-7,15.11-20.2,10.19-29C1097,257.64,1094.64,255.28,1087.86,253.64Z"/><ellipse class="cls-2" cx="1110.91" cy="231.73" rx="33.73" ry="54.43"/><path class="cls-2" d="M1095.11,268.53c-3,4.57,8.12,8.44,12.89,20.82,2.41,6.25.8,8.44,4.07,10.3,5.87,3.34,28.55,1.16,29.53-6.24.5-3.85-4.91-9.19-9.28-9-3.78.15-6.53,4.44-11,3.31a7,7,0,0,1-1.68-.67c-7.39-3.94-6.61-19.47-13.66-22.18C1102.44,263.5,1097.11,265.5,1095.11,268.53Z"/><rect class="cls-3" x="1119.78" y="188.64" width="4.66" height="22.14" transform="translate(-11.86 314.33) rotate(-15.86)"/><circle class="cls-2" cx="1110.91" cy="135.95" r="54.43"/><path class="cls-3" d="M1145.22,45H1144q2.38,25.65,4.81,51.31a87.49,87.49,0,0,1-35.87,7.79,86.66,86.66,0,0,1-36.32-7.89q2.49-26.1,4.91-52.22A12.56,12.56,0,0,1,1065,37.13a12.87,12.87,0,0,1,6.72-16.77,12.52,12.52,0,0,1,15.45,4.76,12.48,12.48,0,0,1,17.44-3.64,12.82,12.82,0,0,1,5.67,10.65,12.59,12.59,0,0,1,23.79-5.72,12.51,12.51,0,0,1,17-5.32,12.86,12.86,0,0,1,5.26,17.25,12.58,12.58,0,0,1-11.13,6.8Z"/><path class="cls-3" d="M1121.83,207.26a20,20,0,0,1,5.06.87c4,1.25,5.32,3.08,8.23,3.46a9.79,9.79,0,0,0,6.59-1.73,79,79,0,0,1,4.51,30.22,77.44,77.44,0,0,1-7.12,29.19,11.4,11.4,0,0,1-15.22-.16Z"/><rect class="cls-3" x="1077.2" y="229.97" width="69.1" height="7.32"/><ellipse class="cls-2" cx="1083.17" cy="224.67" rx="36.6" ry="7.83" transform="translate(194.1 882.9) rotate(-48.23)"/><path class="cls-1" d="M1134.8,123.82a9.3,9.3,0,0,1,2.33-4.16,7.33,7.33,0,0,1,6-1.93,7.25,7.25,0,0,1,4.39,3.09,11,11,0,0,1,1.77,5.57,13.81,13.81,0,0,1,0,6.82,7,7,0,0,1-8.68,5,7.14,7.14,0,0,1-4.49-1.94,9.25,9.25,0,0,1-1.76-4.83,17.82,17.82,0,0,1-.29-3.92A15.38,15.38,0,0,1,1134.8,123.82Z"/><ellipse class="cls-4" cx="1141.9" cy="130.74" rx="6.39" ry="6.48"/><path class="cls-5" d="M1153.08,151.91c-2.58-2.34-5-4.17-5.77-3.63s.73,3.42,0,3.84-5.19-5.44-7.24-4.56c-.78.3-1,1.53-1.08,2.43"/><path class="cls-1" d="M1443.5,151c-.56,1.81-3.63,2.35-4.6,2.54-5.68,1.08-18.25,4.93-36.71,11.07l-14.13-26.63,24.24-13.46c4.56,3.15,21.82,15.15,28.48,21.49C1442,147.18,1444,149.23,1443.5,151Z"/><ellipse class="cls-2" cx="1378.01" cy="220.4" rx="7.91" ry="36.99" transform="translate(323.46 1134.41) rotate(-50)"/><path class="cls-2" d="M1350.71,254.61c-1.08,12.15-4.83,19.77-8.32,24.6s-6.32,6.41-5.64,10.4c1.62,9.47,21.3,21.09,24.52,18.21,2-1.78-1.22-10.11-6.58-15-2.42-2.22-3.22-1.83-4.15-3.18-5-7.11,15.27-20.41,10.29-29.29C1359.89,258.66,1357.56,256.26,1350.71,254.61Z"/><ellipse class="cls-2" cx="1360.77" cy="232.46" rx="34.09" ry="55.01"/><path class="cls-2" d="M1341.48,271c-2.65,4.86,8.9,7.81,14.75,19.87,3,6.09,1.52,8.44,5,10,6.2,2.87,28.85-1.25,29.21-8.79.18-3.92-5.72-8.84-10.11-8.29-3.8.47-6.2,5-10.79,4.27a6.63,6.63,0,0,1-1.75-.54c-7.79-3.34-8.32-19-15.65-21.17C1348.43,265.33,1343.23,267.79,1341.48,271Z"/><rect class="cls-3" x="1369.73" y="188.92" width="4.71" height="22.38" transform="translate(-2.44 382.68) rotate(-15.86)"/><circle class="cls-2" cx="1360.77" cy="135.66" r="55.01"/><path class="cls-3" d="M1395.44,43.7h-1.22q2.41,25.9,4.86,51.86a88.3,88.3,0,0,1-36.25,7.86,87.39,87.39,0,0,1-36.71-8q2.52-26.37,5-52.78a12.7,12.7,0,0,1-16.72-6.89,13,13,0,0,1,6.8-17,12.67,12.67,0,0,1,15.62,4.81A12.61,12.61,0,0,1,1354.41,20a13,13,0,0,1,5.73,10.77,12.73,12.73,0,0,1,24-5.78,12.63,12.63,0,0,1,17.19-5.38A13,13,0,0,1,1406.69,37a12.7,12.7,0,0,1-11.25,6.88Z"/><path class="cls-3" d="M1371.81,207.74a19.48,19.48,0,0,1,5.11.87c4.07,1.27,5.37,3.12,8.32,3.5a9.9,9.9,0,0,0,6.66-1.75,79.61,79.61,0,0,1,4.55,30.54,78.14,78.14,0,0,1-7.19,29.51,11.55,11.55,0,0,1-15.39-.17Z"/><rect class="cls-3" x="1326.7" y="230.69" width="69.84" height="7.4"/><ellipse class="cls-2" cx="1347.29" cy="237.24" rx="36.99" ry="7.91" transform="translate(903.92 1531.41) rotate(-81.08)"/><path class="cls-1" d="M1384.91,123.4a9.29,9.29,0,0,1,2.36-4.2,6.61,6.61,0,0,1,10.51,1.17,11.24,11.24,0,0,1,1.79,5.62,13.9,13.9,0,0,1,0,6.9,7.09,7.09,0,0,1-8.78,5,7.15,7.15,0,0,1-4.53-1.95,9.39,9.39,0,0,1-1.78-4.89,17.58,17.58,0,0,1-.29-4A15.7,15.7,0,0,1,1384.91,123.4Z"/><ellipse class="cls-4" cx="1392.09" cy="130.39" rx="6.46" ry="6.55"/><path class="cls-5" d="M1403.39,151.79c-2.61-2.37-5.07-4.22-5.83-3.67s.73,3.46,0,3.89-5.25-5.5-7.32-4.62c-.79.3-1,1.55-1.09,2.46"/><path class="cls-1" d="M1686.86,150.47c-.55,1.82-3.62,2.36-4.6,2.54-5.68,1.08-18.25,4.93-36.71,11.07l-14.12-26.62L1655.66,124c4.56,3.15,21.83,15.15,28.48,21.5C1685.4,146.69,1687.39,148.75,1686.86,150.47Z"/><ellipse class="cls-2" cx="1576.38" cy="221.24" rx="36.99" ry="7.91" transform="translate(508.04 1401.31) rotate(-55.83)"/><path class="cls-2" d="M1602.07,265.15c7.84,9.35,10.57,17.39,11.52,23.28s.06,9,3.37,11.34c7.84,5.55,30-.15,30.21-4.46.15-2.67-8-6.29-15.26-6-3.29.14-3.57,1-5.19.68-8.53-1.53-3.63-25.23-13.43-28C1611.43,261.52,1608.09,261.47,1602.07,265.15Z"/><ellipse class="cls-2" cx="1604.13" cy="231.98" rx="34.09" ry="55.01"/><path class="cls-2" d="M1580.7,258.42c-5.47-.86-4.37,11-13.76,20.57-4.74,4.83-7.44,4.26-7.78,8.05-.62,6.8,10.88,26.75,18.1,24.55,3.75-1.14,6.4-8.35,4.41-12.3-1.73-3.42-6.82-4.15-7.65-8.73a6.7,6.7,0,0,1-.08-1.83c.53-8.46,15.14-14.23,14.68-21.85C1588.39,263.05,1584.32,259,1580.7,258.42Z"/><rect class="cls-3" x="1613.1" y="188.43" width="4.71" height="22.38" transform="translate(6.96 449.18) rotate(-15.86)"/><circle class="cls-2" cx="1604.13" cy="135.17" r="55.01"/><path class="cls-3" d="M1638.81,43.22h-1.22q2.4,25.91,4.86,51.85a88.48,88.48,0,0,1-36.25,7.87,87.52,87.52,0,0,1-36.71-8q2.52-26.37,5-52.77a12.7,12.7,0,0,1-16.72-6.89,13,13,0,0,1,6.8-16.95,12.66,12.66,0,0,1,15.61,4.8,12.62,12.62,0,0,1,17.63-3.67,12.93,12.93,0,0,1,5.72,10.76,12.72,12.72,0,0,1,24-5.77,12.65,12.65,0,0,1,17.2-5.39,13,13,0,0,1,5.31,17.44,12.7,12.7,0,0,1-11.25,6.87Z"/><path class="cls-3" d="M1615.18,207.25a19.29,19.29,0,0,1,5.11.88c4.06,1.26,5.37,3.11,8.32,3.5a10,10,0,0,0,6.66-1.75,79.75,79.75,0,0,1,4.55,30.53,78.59,78.59,0,0,1-7.19,29.52,11.54,11.54,0,0,1-15.39-.18Z"/><rect class="cls-3" x="1570.06" y="230.2" width="69.84" height="7.4"/><ellipse class="cls-2" cx="1613.16" cy="227.49" rx="7.91" ry="36.99" transform="translate(175.38 993.53) rotate(-36.08)"/><path class="cls-1" d="M1628.28,122.92a9.38,9.38,0,0,1,2.36-4.21,6.63,6.63,0,0,1,10.51,1.17,11.23,11.23,0,0,1,1.78,5.63,13.86,13.86,0,0,1,0,6.89,7.1,7.1,0,0,1-8.77,5,7.19,7.19,0,0,1-4.53-2,9.28,9.28,0,0,1-1.79-4.89,18.09,18.09,0,0,1-.29-4A15.63,15.63,0,0,1,1628.28,122.92Z"/><ellipse class="cls-4" cx="1635.46" cy="129.91" rx="6.46" ry="6.55"/><path class="cls-5" d="M1646.76,151.31c-2.61-2.37-5.07-4.22-5.83-3.68s.73,3.47,0,3.89-5.26-5.5-7.32-4.62c-.79.31-1,1.55-1.1,2.46"/><path class="cls-1" d="M1943.77,151c-.56,1.81-3.63,2.35-4.61,2.54-5.68,1.08-18.25,4.93-36.71,11.07q-7-13.32-14.12-26.63l24.24-13.46c4.55,3.15,21.82,15.15,28.47,21.49C1942.3,147.18,1944.29,149.23,1943.77,151Z"/><ellipse class="cls-2" cx="1899.45" cy="208.49" rx="7.91" ry="36.99" transform="translate(660.23 1663.03) rotate(-55.83)"/><path class="cls-2" d="M1837.74,254.61c-1.07,12.15-4.83,19.77-8.32,24.6s-6.32,6.41-5.64,10.4c1.62,9.47,21.3,21.09,24.52,18.21,2-1.78-1.22-10.11-6.57-15-2.43-2.22-3.22-1.83-4.16-3.18-5-7.11,15.27-20.41,10.3-29.29C1846.93,258.66,1844.59,256.26,1837.74,254.61Z"/><ellipse class="cls-2" cx="1861.03" cy="232.46" rx="34.09" ry="55.01"/><path class="cls-2" d="M1845.07,269.66c-3,4.62,8.21,8.53,13,21,2.43,6.32.8,8.53,4.11,10.41,5.93,3.38,28.85,1.18,29.84-6.3.51-3.89-5-9.29-9.37-9.12-3.83.16-6.6,4.49-11.12,3.36a7.07,7.07,0,0,1-1.7-.69c-7.47-4-6.68-19.67-13.81-22.41C1852.47,264.58,1847.09,266.6,1845.07,269.66Z"/><rect class="cls-3" x="1870" y="188.92" width="4.71" height="22.38" transform="translate(16.61 519.43) rotate(-15.86)"/><circle class="cls-2" cx="1861.03" cy="135.66" r="55.01"/><path class="cls-3" d="M1895.71,43.7h-1.22q2.41,25.92,4.86,51.86a88.3,88.3,0,0,1-36.25,7.86,87.36,87.36,0,0,1-36.71-8q2.52-26.37,5-52.78a12.69,12.69,0,0,1-16.72-6.89,13,13,0,0,1,6.8-17,12.66,12.66,0,0,1,15.61,4.81A12.62,12.62,0,0,1,1854.68,20a13,13,0,0,1,5.73,10.77,12.72,12.72,0,0,1,24-5.78,12.64,12.64,0,0,1,17.2-5.38A13,13,0,0,1,1907,37a12.71,12.71,0,0,1-11.25,6.88Z"/><path class="cls-3" d="M1872.08,207.74a19.61,19.61,0,0,1,5.11.87c4.06,1.26,5.37,3.12,8.32,3.5a9.92,9.92,0,0,0,6.66-1.75,79.81,79.81,0,0,1,4.55,30.54,78.33,78.33,0,0,1-7.19,29.51,11.55,11.55,0,0,1-15.39-.17Z"/><rect class="cls-3" x="1826.96" y="230.69" width="69.84" height="7.4"/><ellipse class="cls-2" cx="1833" cy="225.32" rx="36.99" ry="7.91" transform="translate(443.97 1442.39) rotate(-48.23)"/><path class="cls-1" d="M1885.18,123.4a9.29,9.29,0,0,1,2.36-4.2,6.61,6.61,0,0,1,10.51,1.17,11.24,11.24,0,0,1,1.79,5.62,14.13,14.13,0,0,1,0,6.9,7.11,7.11,0,0,1-8.78,5,7.15,7.15,0,0,1-4.53-1.95,9.4,9.4,0,0,1-1.79-4.89,18.18,18.18,0,0,1-.29-4A15.72,15.72,0,0,1,1885.18,123.4Z"/><ellipse class="cls-4" cx="1892.36" cy="130.39" rx="6.46" ry="6.55"/><path class="cls-5" d="M1903.66,151.79c-2.61-2.37-5.07-4.22-5.83-3.67s.73,3.46,0,3.89-5.26-5.5-7.32-4.62c-.79.3-1,1.55-1.09,2.46"/></svg>